<svg width="69" height="18" viewBox="0 0 69 18" fill="none" xmlns="http://www.w3.org/2000/svg">
<g clip-path="url(#clip0_5002_567575)">
<path d="M1.64877 7.94099C1.31912 8.5412 1.31947 9.26834 1.64968 9.86824L5.16557 16.2555C5.51718 16.8942 6.18853 17.291 6.91767 17.291H67.6162C68.1685 17.291 68.6162 16.8433 68.6162 16.291V8.90486V1.5C68.6162 0.947715 68.1685 0.5 67.6162 0.5H6.91893C6.18913 0.5 5.51727 0.897523 5.16594 1.5372L1.64877 7.94099Z" fill="#FF7035"/>
<path d="M28.8359 12.5H30.2932L27.8217 5.6171H26.2166L23.7451 12.5H25.1926L25.6455 11.1904H28.3829L28.8359 12.5ZM28.0087 10.0875H26.0197L27.0142 7.21228L28.0087 10.0875ZM35.4511 10.9442C35.4118 8.94531 32.3888 9.56566 32.3888 8.57113C32.3888 8.25604 32.6547 8.04925 33.1667 8.04925C33.7083 8.04925 34.0431 8.33481 34.0824 8.75822H35.4019C35.3231 7.67508 34.5255 6.95626 33.2061 6.95626C31.8571 6.95626 31.0496 7.68492 31.0496 8.59083C31.0496 10.5897 34.1317 9.96938 34.1317 10.9442C34.1317 11.2593 33.8363 11.5055 33.2947 11.5055C32.7433 11.5055 32.3593 11.1904 32.31 10.7768H30.9216C30.9807 11.791 31.9358 12.5886 33.3045 12.5886C34.6339 12.5886 35.4511 11.8797 35.4511 10.9442ZM40.8169 10.9442C40.7775 8.94531 37.7545 9.56566 37.7545 8.57113C37.7545 8.25604 38.0204 8.04925 38.5324 8.04925C39.074 8.04925 39.4088 8.33481 39.4482 8.75822H40.7676C40.6889 7.67508 39.8913 6.95626 38.5718 6.95626C37.2228 6.95626 36.4154 7.68492 36.4154 8.59083C36.4154 10.5897 39.4974 9.96938 39.4974 10.9442C39.4974 11.2593 39.202 11.5055 38.6604 11.5055C38.109 11.5055 37.725 11.1904 37.6757 10.7768H36.2874C36.3464 11.791 37.3016 12.5886 38.6703 12.5886C39.9996 12.5886 40.8169 11.8797 40.8169 10.9442ZM47.0984 7.04488H45.71V10.0482C45.71 10.9245 45.2373 11.3972 44.489 11.3972C43.7603 11.3972 43.2778 10.9245 43.2778 10.0482V7.04488H41.8993V10.2451C41.8993 11.7418 42.815 12.5689 44.0852 12.5689C44.7647 12.5689 45.3653 12.2735 45.71 11.8107V12.5H47.0984V7.04488ZM49.8371 9.78229C49.8371 8.72868 50.3294 8.41358 51.1467 8.41358H51.511V6.96611C50.7528 6.96611 50.1817 7.33044 49.8371 7.8917V7.04488H48.4585V12.5H49.8371V9.78229ZM54.7831 8.08864C55.492 8.08864 56.0632 8.54159 56.0829 9.26041H53.4931C53.6015 8.51205 54.1233 8.08864 54.7831 8.08864ZM57.3728 10.7867H55.8859C55.7087 11.151 55.3837 11.4464 54.7929 11.4464C54.1036 11.4464 53.5522 10.9934 53.4833 10.186H57.4712C57.5008 10.0088 57.5106 9.83152 57.5106 9.65428C57.5106 8.02956 56.3979 6.95626 54.8225 6.95626C53.2076 6.95626 52.0851 8.04925 52.0851 9.77244C52.0851 11.4858 53.2371 12.5886 54.8225 12.5886C56.1715 12.5886 57.0774 11.791 57.3728 10.7867ZM58.1624 9.75275C58.1624 11.4562 59.2652 12.5886 60.6536 12.5886C61.5103 12.5886 62.1208 12.1947 62.4457 11.6926V12.5H63.844V5.21338H62.4457V7.80308C62.0715 7.29105 61.3823 6.95626 60.6635 6.95626C59.2652 6.95626 58.1624 8.04925 58.1624 9.75275ZM62.4556 9.77244C62.4556 10.8064 61.7663 11.3775 61.0081 11.3775C60.2696 11.3775 59.5705 10.7867 59.5705 9.75275C59.5705 8.71883 60.2696 8.16741 61.0081 8.16741C61.7663 8.16741 62.4556 8.73853 62.4556 9.77244Z" fill="white"/>
<path d="M14.7808 5.84209C14.0369 5.83051 13.3143 6.13319 12.746 6.69366L12.6094 6.82907L12.6214 5.98113C12.6073 5.98113 12.5931 5.98112 12.579 5.9804C11.8826 5.96954 11.1267 6.35912 11.1139 7.23965L11 15.0993L12.4891 15.1217L12.5655 9.86097C12.5769 9.05936 12.78 7.19692 14.4064 7.22154C15.681 7.24109 16.2458 8.31135 16.2317 9.2976C16.2168 10.3273 15.5643 11.3599 14.3469 11.3411C14.0553 11.3367 13.3738 11.2773 12.9958 10.8458C12.8975 11.1325 12.9031 11.5771 13.1084 11.9566C13.2874 12.2868 13.6824 12.6901 14.5465 12.7364C14.5734 12.7372 14.601 12.7379 14.6279 12.7386C15.3979 12.7502 16.1715 12.4099 16.7504 11.8045C17.3612 11.1651 17.7052 10.294 17.7186 9.35118C17.7512 7.10206 16.2295 5.86454 14.7815 5.84282L14.7808 5.84209ZM20.166 5.20704C20.1717 4.80008 20.435 4.54085 20.8363 4.54737C21.1547 4.55243 21.5362 4.73564 21.711 5.08032C21.9786 4.74505 22.0529 4.40833 21.9241 4.10131C21.7266 3.62846 21.0762 3.3026 20.3054 3.29102C20.2785 3.29102 20.2517 3.29102 20.2241 3.29102C19.6465 3.3055 19.2495 3.45177 19.0131 3.73925C18.6656 4.15996 18.6613 4.87901 18.6564 5.64079C18.6564 5.74941 18.6557 5.85875 18.6536 5.96881L18.6521 6.04992L16.5544 6.01805C16.5544 6.01805 17.3265 6.30481 17.7165 7.32364L18.633 7.3374L18.5559 12.6662L20.057 12.6887L20.1342 7.35985L20.5963 7.36709C21.2524 7.37723 21.7422 6.8479 21.7853 6.09698L20.1526 6.07236L20.1653 5.20776L20.166 5.20704Z" fill="white"/>
<path d="M7 9C7 9.82843 6.32843 10.5 5.5 10.5C4.67157 10.5 4 9.82843 4 9C4 8.17157 4.67157 7.5 5.5 7.5C6.32843 7.5 7 8.17157 7 9Z" fill="white"/>
</g>
<defs>
<clipPath id="clip0_5002_567575">
<rect width="69" height="17" fill="white" transform="translate(0 0.5)"/>
</clipPath>
</defs>
</svg>
