<svg width="23" height="31" viewBox="0 0 23 31" fill="none" xmlns="http://www.w3.org/2000/svg">
<path d="M10.9558 1.56641C10.2091 2.34009 9.39699 3.04654 8.52867 3.67775C5.95785 5.56597 2.77919 7.02467 0.0370688 7.39562C-0.34006 16.0655 2.18104 22.0216 6.65823 26.1174C7.95814 25.6042 9.39759 24.8052 10.9627 23.7467C6.8461 21.0538 4.30843 17.0808 4.30843 11.0563C6.73697 10.6073 8.94586 9.5223 10.9627 8.15007C12.3601 7.12706 13.6264 5.93305 14.7326 4.59536C13.3555 3.74576 12.0871 2.72847 10.9558 1.56641Z" fill="#FF3E14"/>
<path d="M21.8784 7.39065C19.5977 7.07967 17.0116 6.01981 14.7268 4.58203C13.6205 5.91972 12.3542 7.11373 10.9569 8.13674C12.9696 9.51455 15.1785 10.5939 17.607 11.043C17.607 17.0716 15.0694 21.0447 10.9569 23.7334C9.39171 24.796 7.95226 25.5951 6.65234 26.1041C7.96558 27.2956 9.40985 28.331 10.9569 29.1902C11.654 28.797 12.324 28.3786 12.9668 27.9351C18.8531 23.8505 22.3177 17.4453 21.8784 7.39065Z" fill="#F67C2C"/>
<path d="M8.02734 16.531L10.3652 18.5489L14.6901 13.168" stroke="#F67C2C" stroke-width="1.90563" stroke-linecap="round" stroke-linejoin="round"/>
</svg>
