<svg width="35" height="34" viewBox="0 0 35 34" fill="none" xmlns="http://www.w3.org/2000/svg">
<mask id="path-1-outside-1_3762_62114" maskUnits="userSpaceOnUse" x="-0.521484" y="-0.0507812" width="32" height="32" fill="black">
<rect fill="white" x="-0.521484" y="-0.0507812" width="32" height="32"/>
<path fill-rule="evenodd" clip-rule="evenodd" d="M11.7874 5.88361C11.6081 5.94798 11.4242 5.98016 11.2403 5.98016C10.3438 5.98016 9.45198 5.26294 9.04742 4.13194C8.82675 3.51126 8.79457 2.85841 8.96007 2.29291C9.13937 1.68143 9.53933 1.22627 10.0588 1.04236C10.5783 0.853864 11.176 0.955011 11.7 1.31362C12.1874 1.64925 12.5781 2.17337 12.7988 2.79404C13.0195 3.41471 13.0516 4.06757 12.8861 4.63307C12.7068 5.24455 12.3069 5.69971 11.7874 5.88361ZM10.3668 1.91131C10.0404 2.03084 9.89791 2.36647 9.84275 2.55497C9.73701 2.93197 9.76 3.39173 9.91171 3.8239C10.2105 4.66525 10.9277 5.21237 11.4748 5.01927C11.8012 4.89973 11.9437 4.56411 11.9989 4.37561C12.1092 3.99861 12.0862 3.53425 11.9299 3.10208C11.7782 2.66991 11.5024 2.29291 11.1806 2.07222C11.0564 1.98947 10.8358 1.86993 10.5967 1.86993C10.5231 1.86993 10.445 1.88372 10.3668 1.91131ZM3.90205 7.82313C4.27443 7.82313 4.63301 7.73118 4.95023 7.54728C6.1777 6.83925 6.42135 4.95424 5.4927 3.34969C4.56406 1.74054 2.8125 1.00952 1.58503 1.71755C0.357559 2.42558 0.113904 4.31058 1.04255 5.91514C1.47929 6.66914 2.10912 7.26223 2.8171 7.57486C3.18488 7.74037 3.55266 7.82313 3.90205 7.82313ZM1.83788 5.45538C1.17587 4.30599 1.26782 2.9589 2.04475 2.51293C2.8171 2.06697 4.03537 2.66005 4.69738 3.80485C5.35938 4.94965 5.26744 6.30133 4.4905 6.7473C4.13191 6.95419 3.67219 6.94959 3.18947 6.73351C2.65619 6.49903 2.17808 6.04387 1.83788 5.45538ZM4.06027 16.161L5.43025 16.915C5.8486 17.1449 6.26236 17.3977 6.3543 17.7472C6.44981 18.1065 6.18987 18.5198 5.91278 18.9604L5.90377 18.9747C5.84401 19.0667 5.78424 19.1586 5.72908 19.2506C4.60275 21.131 4.86479 23.6688 6.33591 25.1538C7.15423 25.9768 8.28515 26.3952 9.39769 26.3952C10.4321 26.3952 11.4481 26.0366 12.1928 25.3148C12.6388 24.8826 12.9744 24.3585 13.2962 23.8481L13.3032 23.8371C13.7879 23.078 14.2422 22.3665 14.9742 22.124C15.7879 21.8574 16.7027 22.2804 17.3326 22.6804C17.5248 22.8027 17.7117 22.9356 17.8993 23.0691C17.9585 23.1112 18.0178 23.1534 18.0773 23.1953C18.629 23.5953 19.2037 24.0045 19.8749 24.2665C21.3966 24.8596 23.6124 24.6573 24.725 23.1171C25.1617 22.5102 24.9686 21.5126 24.6376 21.062C24.3335 20.6444 23.868 20.3119 23.4226 19.9937L23.4056 19.9816C22.955 19.6643 22.4907 19.3333 22.2838 18.9747C21.8287 18.1931 21.392 17.2874 21.608 16.4736C21.683 16.1914 21.8383 15.9218 22.0051 15.6325L22.0264 15.5955L22.0815 15.5035C22.188 15.3172 22.4014 15.071 22.631 14.8062L22.6311 14.8061L22.6311 14.8061L22.6562 14.7771L22.6646 14.7674L22.6646 14.7674C23.1539 14.2003 23.6588 13.6152 23.732 13.0254C23.8469 12.0783 23.5297 11.1634 22.8953 10.6393C22.2022 10.0656 21.3534 10.0371 20.5318 10.0096L20.5277 10.0094L20.4885 10.008C19.9929 9.99025 19.5285 9.9736 19.1209 9.83472C18.9692 9.78415 18.937 9.74737 18.9324 9.73817C18.9232 9.72898 18.9048 9.6876 18.8956 9.55887C18.8543 9.10371 18.9462 8.62556 19.1577 8.22097C19.2174 8.10604 19.2818 7.9865 19.3462 7.86696L19.3517 7.85674C19.7044 7.20638 20.1036 6.47018 19.8841 5.76127C19.7599 5.36128 19.4565 5.03485 18.983 4.79118L18.9783 4.78879C18.2263 4.40584 16.4702 3.51153 15.1719 4.98428C14.6386 5.58656 14.3352 6.45091 14.2984 7.48076L14.2938 7.65547C14.2846 8.00949 14.2754 8.34511 14.1237 8.5566C13.8616 8.91981 13.1858 8.88303 12.6617 8.78648C12.1331 8.68993 11.5998 8.56119 11.0711 8.40488C10.8458 8.33591 10.57 8.25316 10.262 8.30373C10.0413 8.34051 9.82524 8.44166 9.62296 8.60717C8.93337 9.16807 8.7173 10.1979 9.14025 10.9519C9.29655 11.2324 9.51262 11.4439 9.70571 11.6324L9.80685 11.7289C10.17 12.0921 10.5884 12.6438 10.5102 13.1864C10.4643 13.5128 10.2436 13.7289 10.0689 13.853C9.68272 14.1243 9.12186 14.23 8.64374 14.1289C7.91631 13.9733 7.27994 13.5218 6.60324 13.0416L6.59336 13.0346C6.55127 13.0049 6.50918 12.9749 6.467 12.9448L6.46698 12.9448C6.35253 12.8631 6.23741 12.7809 6.11984 12.7036C5.58196 12.3358 4.92915 11.9496 4.1752 11.8898C3.27873 11.8163 2.44203 12.2668 2.13861 12.9887C1.87197 13.6231 2.03288 14.4369 2.55237 15.053C2.97531 15.5633 3.54997 15.8805 4.06027 16.161ZM2.97991 13.3473C3.13622 12.9841 3.59594 12.8002 3.98671 12.8002C4.02349 12.8002 4.05567 12.8002 4.09245 12.8048C4.63493 12.8507 5.15901 13.1634 5.60035 13.4622L5.60048 13.4623L5.60051 13.4623L5.60054 13.4623L5.60058 13.4624L5.60061 13.4624L5.60064 13.4624C5.75226 13.5681 5.90387 13.6738 6.05548 13.784L6.08034 13.8017C6.79886 14.3111 7.53709 14.8345 8.44606 15.0254C9.17702 15.1771 9.99534 15.0162 10.5884 14.6024C11.0527 14.276 11.3423 13.83 11.4159 13.3151C11.517 12.5887 11.186 11.8163 10.4551 11.0807L10.3493 10.9749L10.3032 10.929C10.1591 10.7856 10.0237 10.651 9.94477 10.5014C9.74249 10.1382 9.86202 9.59565 10.2068 9.31979C10.285 9.25543 10.3585 9.21865 10.4183 9.20945C10.5148 9.19566 10.6619 9.23704 10.832 9.28761C11.3791 9.45312 11.9446 9.58645 12.5054 9.6922C13.641 9.90369 14.4409 9.70139 14.8776 9.09911C15.1994 8.65774 15.2132 8.13822 15.2224 7.67846L15.227 7.51295C15.25 6.94745 15.3787 6.15207 15.8706 5.59116C16.4729 4.90612 17.2084 4.91072 18.5738 5.60955C18.8221 5.73828 18.9692 5.87621 19.0152 6.03253C19.1209 6.37275 18.8175 6.93365 18.5462 7.42559C18.522 7.47088 18.4977 7.51559 18.4737 7.55993L18.4735 7.56027C18.4292 7.64188 18.3856 7.72224 18.344 7.80259C18.0543 8.37269 17.9302 9.00716 17.9854 9.64163C17.9992 9.82093 18.036 10.0554 18.1831 10.2623C18.367 10.5244 18.6428 10.6393 18.8313 10.7037C19.3763 10.8869 19.9442 10.9058 20.494 10.9241L20.5001 10.9243C21.1989 10.9473 21.8609 10.9703 22.3068 11.3427C22.7757 11.7335 22.8769 12.4094 22.8171 12.9105C22.7803 13.2277 22.3068 13.7748 21.9574 14.1702L21.9358 14.1952C21.6772 14.4939 21.4337 14.7751 21.2816 15.0346L21.2311 15.1265C21.0334 15.4668 20.8311 15.8162 20.7208 16.2299C20.4173 17.3656 20.9368 18.4874 21.4885 19.4299C21.7965 19.9586 22.3436 20.3494 22.8723 20.7218L22.8891 20.7337C23.2966 21.0235 23.6798 21.296 23.8975 21.5953C24.04 21.7884 24.1365 22.3539 23.9802 22.57C23.1711 23.6918 21.4241 23.8711 20.2105 23.3976C19.6497 23.1769 19.1487 22.8185 18.6156 22.437L18.6156 22.4369L18.6152 22.4367L18.5711 22.4052L18.5711 22.4052L18.571 22.4051L18.571 22.4051L18.571 22.4051L18.5709 22.405C18.3277 22.2312 18.0804 22.0545 17.8291 21.8942C16.689 21.1632 15.604 20.9379 14.6891 21.2367C13.6456 21.5815 13.0755 22.4735 12.5238 23.3378C12.2158 23.8251 11.9216 24.2849 11.5538 24.6389C10.3769 25.7837 8.2024 25.7102 6.98873 24.4872C5.82102 23.3102 5.61414 21.2137 6.51521 19.7057C6.55157 19.6429 6.59031 19.5825 6.62972 19.521L6.62974 19.521L6.62975 19.5209L6.62977 19.5209C6.64515 19.4969 6.66063 19.4728 6.67611 19.4483L6.68125 19.4401C7.01601 18.9081 7.43365 18.2445 7.23698 17.4989C7.05309 16.8001 6.43705 16.4047 5.86699 16.092L4.49701 15.338C4.03728 15.0852 3.56376 14.8231 3.24655 14.4461C3.0075 14.1702 2.8282 13.7151 2.97991 13.3473ZM25.3399 3.97115C24.894 3.64472 24.2963 3.56656 23.6895 3.75506C23.1286 3.93437 22.6045 4.32516 22.2138 4.85388C21.823 5.3826 21.6023 6.00328 21.5977 6.59177C21.5931 7.22623 21.846 7.77794 22.2873 8.10437C22.5723 8.31586 22.9217 8.4216 23.2941 8.4216C23.5056 8.4216 23.7217 8.38942 23.9377 8.32045C24.4986 8.14115 25.0227 7.75036 25.4134 7.22163C25.8042 6.69291 26.0249 6.07224 26.0295 5.48375C26.0341 4.84928 25.7812 4.29758 25.3399 3.97115ZM24.6733 6.67452C24.4021 7.04693 24.0297 7.32738 23.6573 7.44232C23.4688 7.50209 23.1102 7.57105 22.8298 7.36416C22.5494 7.15727 22.508 6.79406 22.5126 6.59636C22.5172 6.20557 22.6735 5.7688 22.9493 5.40099C23.2206 5.02859 23.5929 4.74814 23.9653 4.6332C24.0573 4.60561 24.1906 4.57343 24.3377 4.57343C24.4894 4.57343 24.6503 4.60561 24.7928 4.71136C25.0732 4.91825 25.1146 5.28146 25.11 5.47915C25.1054 5.86995 24.9491 6.30672 24.6733 6.67452ZM24.0849 27.4704C23.8274 26.8911 23.8366 26.2842 24.1124 25.8061C24.6733 24.836 26.0847 24.6429 27.3351 25.3693C28.581 26.0911 29.1189 27.4152 28.5626 28.3807C28.2316 28.9508 27.6018 29.2543 26.88 29.2543C26.3881 29.2543 25.8502 29.1117 25.3445 28.8175C24.7699 28.4865 24.3239 28.0083 24.0849 27.4704ZM25.795 25.8566C25.3997 25.8566 25.0641 25.9946 24.9078 26.2658C24.7377 26.5647 24.8434 26.9141 24.9216 27.0934C25.0825 27.452 25.3997 27.7876 25.7996 28.0175C26.572 28.4681 27.473 28.4175 27.7627 27.9164C28.0523 27.4152 27.6431 26.6106 26.8708 26.1647C26.5168 25.9578 26.1352 25.8566 25.795 25.8566ZM29.3882 13.2625C28.8135 13.1246 28.1653 13.1889 27.5539 13.4418C26.9424 13.6947 26.4367 14.1084 26.1333 14.6096C25.8023 15.1521 25.7334 15.7544 25.9448 16.2647C26.1563 16.775 26.6298 17.152 27.2459 17.2992C27.4435 17.3451 27.6504 17.3681 27.8619 17.3681C28.2618 17.3681 28.6802 17.2854 29.0802 17.1199C30.4134 16.5681 31.1213 15.3268 30.6938 14.2969C30.4823 13.7866 30.0088 13.4096 29.3882 13.2625ZM28.7262 16.2693C28.2986 16.444 27.8389 16.4946 27.4573 16.4026C27.2642 16.3567 26.924 16.2325 26.7907 15.9107C26.6574 15.5889 26.8091 15.2578 26.9149 15.0877C27.1171 14.7567 27.4803 14.4625 27.9033 14.2878C28.1883 14.1682 28.4871 14.1084 28.7721 14.1084C28.9101 14.1084 29.048 14.1222 29.1721 14.1544C29.3652 14.2004 29.7054 14.3245 29.8387 14.6464C30.064 15.1843 29.5537 15.9291 28.7262 16.2693ZM14.4979 26.8813C15.1094 26.6284 15.7576 26.564 16.3322 26.7019C16.9483 26.8491 17.4218 27.2261 17.6333 27.741C18.0608 28.7709 17.3528 30.0122 16.0196 30.5639C15.6059 30.734 15.1829 30.8168 14.7921 30.8168C13.9233 30.8168 13.1785 30.4168 12.8843 29.7042C12.6728 29.1938 12.7418 28.5916 13.0728 28.049C13.3808 27.5479 13.8865 27.1341 14.4979 26.8813ZM13.7348 29.3502C13.96 29.8835 14.8427 30.049 15.6702 29.7088C16.4977 29.3685 17.008 28.6237 16.7874 28.0858C16.654 27.764 16.3138 27.6399 16.1208 27.5939C15.9966 27.5617 15.8587 27.5479 15.7208 27.5479C15.4358 27.5479 15.1369 27.6077 14.8519 27.7272C14.4244 27.9019 14.0612 28.1962 13.8589 28.5272C13.7532 28.6973 13.6015 29.0283 13.7348 29.3502Z"/>
</mask>
<path fill-rule="evenodd" clip-rule="evenodd" d="M11.7874 5.88361C11.6081 5.94798 11.4242 5.98016 11.2403 5.98016C10.3438 5.98016 9.45198 5.26294 9.04742 4.13194C8.82675 3.51126 8.79457 2.85841 8.96007 2.29291C9.13937 1.68143 9.53933 1.22627 10.0588 1.04236C10.5783 0.853864 11.176 0.955011 11.7 1.31362C12.1874 1.64925 12.5781 2.17337 12.7988 2.79404C13.0195 3.41471 13.0516 4.06757 12.8861 4.63307C12.7068 5.24455 12.3069 5.69971 11.7874 5.88361ZM10.3668 1.91131C10.0404 2.03084 9.89791 2.36647 9.84275 2.55497C9.73701 2.93197 9.76 3.39173 9.91171 3.8239C10.2105 4.66525 10.9277 5.21237 11.4748 5.01927C11.8012 4.89973 11.9437 4.56411 11.9989 4.37561C12.1092 3.99861 12.0862 3.53425 11.9299 3.10208C11.7782 2.66991 11.5024 2.29291 11.1806 2.07222C11.0564 1.98947 10.8358 1.86993 10.5967 1.86993C10.5231 1.86993 10.445 1.88372 10.3668 1.91131ZM3.90205 7.82313C4.27443 7.82313 4.63301 7.73118 4.95023 7.54728C6.1777 6.83925 6.42135 4.95424 5.4927 3.34969C4.56406 1.74054 2.8125 1.00952 1.58503 1.71755C0.357559 2.42558 0.113904 4.31058 1.04255 5.91514C1.47929 6.66914 2.10912 7.26223 2.8171 7.57486C3.18488 7.74037 3.55266 7.82313 3.90205 7.82313ZM1.83788 5.45538C1.17587 4.30599 1.26782 2.9589 2.04475 2.51293C2.8171 2.06697 4.03537 2.66005 4.69738 3.80485C5.35938 4.94965 5.26744 6.30133 4.4905 6.7473C4.13191 6.95419 3.67219 6.94959 3.18947 6.73351C2.65619 6.49903 2.17808 6.04387 1.83788 5.45538ZM4.06027 16.161L5.43025 16.915C5.8486 17.1449 6.26236 17.3977 6.3543 17.7472C6.44981 18.1065 6.18987 18.5198 5.91278 18.9604L5.90377 18.9747C5.84401 19.0667 5.78424 19.1586 5.72908 19.2506C4.60275 21.131 4.86479 23.6688 6.33591 25.1538C7.15423 25.9768 8.28515 26.3952 9.39769 26.3952C10.4321 26.3952 11.4481 26.0366 12.1928 25.3148C12.6388 24.8826 12.9744 24.3585 13.2962 23.8481L13.3032 23.8371C13.7879 23.078 14.2422 22.3665 14.9742 22.124C15.7879 21.8574 16.7027 22.2804 17.3326 22.6804C17.5248 22.8027 17.7117 22.9356 17.8993 23.0691C17.9585 23.1112 18.0178 23.1534 18.0773 23.1953C18.629 23.5953 19.2037 24.0045 19.8749 24.2665C21.3966 24.8596 23.6124 24.6573 24.725 23.1171C25.1617 22.5102 24.9686 21.5126 24.6376 21.062C24.3335 20.6444 23.868 20.3119 23.4226 19.9937L23.4056 19.9816C22.955 19.6643 22.4907 19.3333 22.2838 18.9747C21.8287 18.1931 21.392 17.2874 21.608 16.4736C21.683 16.1914 21.8383 15.9218 22.0051 15.6325L22.0264 15.5955L22.0815 15.5035C22.188 15.3172 22.4014 15.071 22.631 14.8062L22.6311 14.8061L22.6311 14.8061L22.6562 14.7771L22.6646 14.7674L22.6646 14.7674C23.1539 14.2003 23.6588 13.6152 23.732 13.0254C23.8469 12.0783 23.5297 11.1634 22.8953 10.6393C22.2022 10.0656 21.3534 10.0371 20.5318 10.0096L20.5277 10.0094L20.4885 10.008C19.9929 9.99025 19.5285 9.9736 19.1209 9.83472C18.9692 9.78415 18.937 9.74737 18.9324 9.73817C18.9232 9.72898 18.9048 9.6876 18.8956 9.55887C18.8543 9.10371 18.9462 8.62556 19.1577 8.22097C19.2174 8.10604 19.2818 7.9865 19.3462 7.86696L19.3517 7.85674C19.7044 7.20638 20.1036 6.47018 19.8841 5.76127C19.7599 5.36128 19.4565 5.03485 18.983 4.79118L18.9783 4.78879C18.2263 4.40584 16.4702 3.51153 15.1719 4.98428C14.6386 5.58656 14.3352 6.45091 14.2984 7.48076L14.2938 7.65547C14.2846 8.00949 14.2754 8.34511 14.1237 8.5566C13.8616 8.91981 13.1858 8.88303 12.6617 8.78648C12.1331 8.68993 11.5998 8.56119 11.0711 8.40488C10.8458 8.33591 10.57 8.25316 10.262 8.30373C10.0413 8.34051 9.82524 8.44166 9.62296 8.60717C8.93337 9.16807 8.7173 10.1979 9.14025 10.9519C9.29655 11.2324 9.51262 11.4439 9.70571 11.6324L9.80685 11.7289C10.17 12.0921 10.5884 12.6438 10.5102 13.1864C10.4643 13.5128 10.2436 13.7289 10.0689 13.853C9.68272 14.1243 9.12186 14.23 8.64374 14.1289C7.91631 13.9733 7.27994 13.5218 6.60324 13.0416L6.59336 13.0346C6.55127 13.0049 6.50918 12.9749 6.467 12.9448L6.46698 12.9448C6.35253 12.8631 6.23741 12.7809 6.11984 12.7036C5.58196 12.3358 4.92915 11.9496 4.1752 11.8898C3.27873 11.8163 2.44203 12.2668 2.13861 12.9887C1.87197 13.6231 2.03288 14.4369 2.55237 15.053C2.97531 15.5633 3.54997 15.8805 4.06027 16.161ZM2.97991 13.3473C3.13622 12.9841 3.59594 12.8002 3.98671 12.8002C4.02349 12.8002 4.05567 12.8002 4.09245 12.8048C4.63493 12.8507 5.15901 13.1634 5.60035 13.4622L5.60048 13.4623L5.60051 13.4623L5.60054 13.4623L5.60058 13.4624L5.60061 13.4624L5.60064 13.4624C5.75226 13.5681 5.90387 13.6738 6.05548 13.784L6.08034 13.8017C6.79886 14.3111 7.53709 14.8345 8.44606 15.0254C9.17702 15.1771 9.99534 15.0162 10.5884 14.6024C11.0527 14.276 11.3423 13.83 11.4159 13.3151C11.517 12.5887 11.186 11.8163 10.4551 11.0807L10.3493 10.9749L10.3032 10.929C10.1591 10.7856 10.0237 10.651 9.94477 10.5014C9.74249 10.1382 9.86202 9.59565 10.2068 9.31979C10.285 9.25543 10.3585 9.21865 10.4183 9.20945C10.5148 9.19566 10.6619 9.23704 10.832 9.28761C11.3791 9.45312 11.9446 9.58645 12.5054 9.6922C13.641 9.90369 14.4409 9.70139 14.8776 9.09911C15.1994 8.65774 15.2132 8.13822 15.2224 7.67846L15.227 7.51295C15.25 6.94745 15.3787 6.15207 15.8706 5.59116C16.4729 4.90612 17.2084 4.91072 18.5738 5.60955C18.8221 5.73828 18.9692 5.87621 19.0152 6.03253C19.1209 6.37275 18.8175 6.93365 18.5462 7.42559C18.522 7.47088 18.4977 7.51559 18.4737 7.55993L18.4735 7.56027C18.4292 7.64188 18.3856 7.72224 18.344 7.80259C18.0543 8.37269 17.9302 9.00716 17.9854 9.64163C17.9992 9.82093 18.036 10.0554 18.1831 10.2623C18.367 10.5244 18.6428 10.6393 18.8313 10.7037C19.3763 10.8869 19.9442 10.9058 20.494 10.9241L20.5001 10.9243C21.1989 10.9473 21.8609 10.9703 22.3068 11.3427C22.7757 11.7335 22.8769 12.4094 22.8171 12.9105C22.7803 13.2277 22.3068 13.7748 21.9574 14.1702L21.9358 14.1952C21.6772 14.4939 21.4337 14.7751 21.2816 15.0346L21.2311 15.1265C21.0334 15.4668 20.8311 15.8162 20.7208 16.2299C20.4173 17.3656 20.9368 18.4874 21.4885 19.4299C21.7965 19.9586 22.3436 20.3494 22.8723 20.7218L22.8891 20.7337C23.2966 21.0235 23.6798 21.296 23.8975 21.5953C24.04 21.7884 24.1365 22.3539 23.9802 22.57C23.1711 23.6918 21.4241 23.8711 20.2105 23.3976C19.6497 23.1769 19.1487 22.8185 18.6156 22.437L18.6156 22.4369L18.6152 22.4367L18.5711 22.4052L18.5711 22.4052L18.571 22.4051L18.571 22.4051L18.571 22.4051L18.5709 22.405C18.3277 22.2312 18.0804 22.0545 17.8291 21.8942C16.689 21.1632 15.604 20.9379 14.6891 21.2367C13.6456 21.5815 13.0755 22.4735 12.5238 23.3378C12.2158 23.8251 11.9216 24.2849 11.5538 24.6389C10.3769 25.7837 8.2024 25.7102 6.98873 24.4872C5.82102 23.3102 5.61414 21.2137 6.51521 19.7057C6.55157 19.6429 6.59031 19.5825 6.62972 19.521L6.62974 19.521L6.62975 19.5209L6.62977 19.5209C6.64515 19.4969 6.66063 19.4728 6.67611 19.4483L6.68125 19.4401C7.01601 18.9081 7.43365 18.2445 7.23698 17.4989C7.05309 16.8001 6.43705 16.4047 5.86699 16.092L4.49701 15.338C4.03728 15.0852 3.56376 14.8231 3.24655 14.4461C3.0075 14.1702 2.8282 13.7151 2.97991 13.3473ZM25.3399 3.97115C24.894 3.64472 24.2963 3.56656 23.6895 3.75506C23.1286 3.93437 22.6045 4.32516 22.2138 4.85388C21.823 5.3826 21.6023 6.00328 21.5977 6.59177C21.5931 7.22623 21.846 7.77794 22.2873 8.10437C22.5723 8.31586 22.9217 8.4216 23.2941 8.4216C23.5056 8.4216 23.7217 8.38942 23.9377 8.32045C24.4986 8.14115 25.0227 7.75036 25.4134 7.22163C25.8042 6.69291 26.0249 6.07224 26.0295 5.48375C26.0341 4.84928 25.7812 4.29758 25.3399 3.97115ZM24.6733 6.67452C24.4021 7.04693 24.0297 7.32738 23.6573 7.44232C23.4688 7.50209 23.1102 7.57105 22.8298 7.36416C22.5494 7.15727 22.508 6.79406 22.5126 6.59636C22.5172 6.20557 22.6735 5.7688 22.9493 5.40099C23.2206 5.02859 23.5929 4.74814 23.9653 4.6332C24.0573 4.60561 24.1906 4.57343 24.3377 4.57343C24.4894 4.57343 24.6503 4.60561 24.7928 4.71136C25.0732 4.91825 25.1146 5.28146 25.11 5.47915C25.1054 5.86995 24.9491 6.30672 24.6733 6.67452ZM24.0849 27.4704C23.8274 26.8911 23.8366 26.2842 24.1124 25.8061C24.6733 24.836 26.0847 24.6429 27.3351 25.3693C28.581 26.0911 29.1189 27.4152 28.5626 28.3807C28.2316 28.9508 27.6018 29.2543 26.88 29.2543C26.3881 29.2543 25.8502 29.1117 25.3445 28.8175C24.7699 28.4865 24.3239 28.0083 24.0849 27.4704ZM25.795 25.8566C25.3997 25.8566 25.0641 25.9946 24.9078 26.2658C24.7377 26.5647 24.8434 26.9141 24.9216 27.0934C25.0825 27.452 25.3997 27.7876 25.7996 28.0175C26.572 28.4681 27.473 28.4175 27.7627 27.9164C28.0523 27.4152 27.6431 26.6106 26.8708 26.1647C26.5168 25.9578 26.1352 25.8566 25.795 25.8566ZM29.3882 13.2625C28.8135 13.1246 28.1653 13.1889 27.5539 13.4418C26.9424 13.6947 26.4367 14.1084 26.1333 14.6096C25.8023 15.1521 25.7334 15.7544 25.9448 16.2647C26.1563 16.775 26.6298 17.152 27.2459 17.2992C27.4435 17.3451 27.6504 17.3681 27.8619 17.3681C28.2618 17.3681 28.6802 17.2854 29.0802 17.1199C30.4134 16.5681 31.1213 15.3268 30.6938 14.2969C30.4823 13.7866 30.0088 13.4096 29.3882 13.2625ZM28.7262 16.2693C28.2986 16.444 27.8389 16.4946 27.4573 16.4026C27.2642 16.3567 26.924 16.2325 26.7907 15.9107C26.6574 15.5889 26.8091 15.2578 26.9149 15.0877C27.1171 14.7567 27.4803 14.4625 27.9033 14.2878C28.1883 14.1682 28.4871 14.1084 28.7721 14.1084C28.9101 14.1084 29.048 14.1222 29.1721 14.1544C29.3652 14.2004 29.7054 14.3245 29.8387 14.6464C30.064 15.1843 29.5537 15.9291 28.7262 16.2693ZM14.4979 26.8813C15.1094 26.6284 15.7576 26.564 16.3322 26.7019C16.9483 26.8491 17.4218 27.2261 17.6333 27.741C18.0608 28.7709 17.3528 30.0122 16.0196 30.5639C15.6059 30.734 15.1829 30.8168 14.7921 30.8168C13.9233 30.8168 13.1785 30.4168 12.8843 29.7042C12.6728 29.1938 12.7418 28.5916 13.0728 28.049C13.3808 27.5479 13.8865 27.1341 14.4979 26.8813ZM13.7348 29.3502C13.96 29.8835 14.8427 30.049 15.6702 29.7088C16.4977 29.3685 17.008 28.6237 16.7874 28.0858C16.654 27.764 16.3138 27.6399 16.1208 27.5939C15.9966 27.5617 15.8587 27.5479 15.7208 27.5479C15.4358 27.5479 15.1369 27.6077 14.8519 27.7272C14.4244 27.9019 14.0612 28.1962 13.8589 28.5272C13.7532 28.6973 13.6015 29.0283 13.7348 29.3502Z" fill="#E0E0E0"/>
<path d="M11.7874 5.88361L11.6861 5.5976L11.6849 5.59805L11.7874 5.88361ZM9.04742 4.13194L8.76155 4.23357L8.76174 4.23412L9.04742 4.13194ZM8.96007 2.29291L8.66893 2.20754L8.66889 2.20769L8.96007 2.29291ZM10.0588 1.04236L10.1601 1.32838L10.1623 1.32757L10.0588 1.04236ZM11.7 1.31362L11.8721 1.06375L11.8714 1.06323L11.7 1.31362ZM12.7988 2.79404L13.0847 2.6924V2.6924L12.7988 2.79404ZM12.8861 4.63307L13.1773 4.71844L13.1773 4.71829L12.8861 4.63307ZM9.84275 2.55497L9.55154 2.46974L9.55062 2.47303L9.84275 2.55497ZM10.3668 1.91131L10.2658 1.62518L10.2625 1.62641L10.3668 1.91131ZM9.91171 3.8239L9.62543 3.92439L9.6258 3.92544L9.91171 3.8239ZM11.4748 5.01927L11.5758 5.30539L11.5791 5.30417L11.4748 5.01927ZM11.9989 4.37561L11.7077 4.29039V4.29039L11.9989 4.37561ZM11.9299 3.10208L11.6436 3.20258L11.6446 3.20527L11.9299 3.10208ZM11.1806 2.07222L11.3522 1.82198L11.3489 1.81978L11.1806 2.07222ZM4.95023 7.54728L4.79863 7.28446L4.79805 7.2848L4.95023 7.54728ZM5.4927 3.34969L5.22992 3.50134L5.23011 3.50167L5.4927 3.34969ZM1.58503 1.71755L1.43343 1.45474L1.58503 1.71755ZM1.04255 5.91514L0.779957 6.06711L0.780011 6.06721L1.04255 5.91514ZM2.8171 7.57486L2.94161 7.29818L2.93966 7.29732L2.8171 7.57486ZM2.04475 2.51293L2.1958 2.77607L2.19647 2.77568L2.04475 2.51293ZM1.83788 5.45538L1.57497 5.60681L1.57521 5.60722L1.83788 5.45538ZM4.69738 3.80485L4.96003 3.65297L4.69738 3.80485ZM4.4905 6.7473L4.33946 6.48416L4.33887 6.4845L4.4905 6.7473ZM3.18947 6.73351L3.31344 6.45658L3.31159 6.45576L3.18947 6.73351ZM5.43025 16.915L5.28396 17.1808L5.28414 17.1809L5.43025 16.915ZM4.06027 16.161L4.20656 15.8952L4.2064 15.8951L4.06027 16.161ZM6.3543 17.7472L6.06089 17.8244L6.06108 17.8251L6.3543 17.7472ZM5.91278 18.9604L5.65594 18.7989L5.65594 18.7989L5.91278 18.9604ZM5.90377 18.9747L6.15819 19.1401L6.16061 19.1362L5.90377 18.9747ZM5.72908 19.2506L5.46891 19.0945L5.46879 19.0947L5.72908 19.2506ZM6.33591 25.1538L6.12037 25.3674L6.12077 25.3678L6.33591 25.1538ZM12.1928 25.3148L11.9817 25.0969L11.9817 25.0969L12.1928 25.3148ZM13.2962 23.8481L13.0404 23.6849L13.0395 23.6863L13.2962 23.8481ZM13.3032 23.8371L13.0475 23.6738L13.0475 23.6738L13.3032 23.8371ZM14.9742 22.124L14.8797 21.8357L14.8788 21.836L14.9742 22.124ZM17.3326 22.6804L17.4955 22.4244L17.4952 22.4242L17.3326 22.6804ZM17.8993 23.0691L18.0752 22.8219L17.8993 23.0691ZM18.0773 23.1953L18.2554 22.9496L18.2519 22.9472L18.0773 23.1953ZM19.8749 24.2665L19.7645 24.5491L19.7647 24.5492L19.8749 24.2665ZM24.725 23.1171L24.9709 23.2948L24.9712 23.2943L24.725 23.1171ZM24.6376 21.062L24.3924 21.2406L24.3931 21.2416L24.6376 21.062ZM23.4226 19.9937L23.2462 20.2406L23.2462 20.2406L23.4226 19.9937ZM23.4056 19.9816L23.5819 19.7347L23.5802 19.7335L23.4056 19.9816ZM22.2838 18.9747L22.5466 18.8231L22.546 18.822L22.2838 18.9747ZM21.608 16.4736L21.3148 16.3957L21.3148 16.3958L21.608 16.4736ZM22.0051 15.6325L22.2679 15.784L22.2679 15.784L22.0051 15.6325ZM22.0264 15.5955L21.7662 15.4394L21.7635 15.444L22.0264 15.5955ZM22.0815 15.5035L22.3418 15.6597L22.345 15.6541L22.0815 15.5035ZM22.631 14.8062L22.4027 14.6064L22.4017 14.6075L22.631 14.8062ZM22.6311 14.8061L22.4165 14.5916L22.4094 14.5987L22.4027 14.6063L22.6311 14.8061ZM22.6311 14.8061L22.8456 15.0206L22.8533 15.013L22.8604 15.0048L22.6311 14.8061ZM22.6562 14.7771L22.8855 14.9758L22.8859 14.9753L22.6562 14.7771ZM22.6646 14.7674L22.4501 14.5529L22.4422 14.5607L22.4349 14.5692L22.6646 14.7674ZM22.6646 14.7674L22.8791 14.9819L22.887 14.974L22.8943 14.9656L22.6646 14.7674ZM23.732 13.0254L24.0331 13.0628L24.0332 13.062L23.732 13.0254ZM22.8953 10.6393L22.7018 10.873L22.702 10.8732L22.8953 10.6393ZM20.5318 10.0096L20.542 9.70634L20.5419 9.70633L20.5318 10.0096ZM20.5277 10.0094L20.5168 10.3126L20.5176 10.3127L20.5277 10.0094ZM20.4885 10.008L20.4994 9.70482L20.4994 9.70482L20.4885 10.008ZM19.1209 9.83472L19.2188 9.54752L19.2169 9.54689L19.1209 9.83472ZM18.9324 9.73817L19.2038 9.6025L19.1818 9.55846L19.147 9.52364L18.9324 9.73817ZM18.8956 9.55887L19.1983 9.53725L19.1978 9.5314L18.8956 9.55887ZM19.1577 8.22097L19.4266 8.36152L19.4269 8.36094L19.1577 8.22097ZM19.3462 7.86696L19.0795 7.72233L19.079 7.72313L19.3462 7.86696ZM19.3517 7.85674L19.6184 8.00136V8.00136L19.3517 7.85674ZM19.8841 5.76127L20.1739 5.67153L20.1738 5.67135L19.8841 5.76127ZM18.983 4.79118L19.1218 4.5214L19.1207 4.52082L18.983 4.79118ZM18.9783 4.78879L18.8406 5.05916V5.05916L18.9783 4.78879ZM15.1719 4.98428L15.399 5.18541L15.3994 5.18492L15.1719 4.98428ZM14.2984 7.48076L13.9952 7.46994L13.9951 7.47278L14.2984 7.48076ZM14.2938 7.65547L13.9905 7.64749L13.9905 7.6476L14.2938 7.65547ZM14.1237 8.5566L14.3697 8.73412L14.3702 8.73344L14.1237 8.5566ZM12.6617 8.78648L12.7167 8.48809L12.7163 8.48801L12.6617 8.78648ZM11.0711 8.40488L10.9823 8.695L10.9851 8.69583L11.0711 8.40488ZM10.262 8.30373L10.2128 8.00434L10.2121 8.00446L10.262 8.30373ZM9.62296 8.60717L9.81441 8.84254L9.81509 8.84198L9.62296 8.60717ZM9.14025 10.9519L9.40527 10.8042L9.40486 10.8035L9.14025 10.9519ZM9.70571 11.6324L9.49375 11.8495L9.49621 11.8518L9.70571 11.6324ZM9.80685 11.7289L10.0215 11.5143L10.0163 11.5095L9.80685 11.7289ZM10.5102 13.1864L10.2099 13.1431L10.2098 13.144L10.5102 13.1864ZM10.0689 13.853L10.2433 14.1013L10.2446 14.1003L10.0689 13.853ZM8.64374 14.1289L8.58029 14.4256L8.58095 14.4257L8.64374 14.1289ZM6.60324 13.0416L6.42766 13.2891L6.42767 13.2891L6.60324 13.0416ZM6.59336 13.0346L6.76893 12.7872L6.76834 12.7868L6.59336 13.0346ZM6.467 12.9448L6.27746 13.1817L6.28395 13.1869L6.29072 13.1917L6.467 12.9448ZM6.46698 12.9448L6.65652 12.7078L6.65003 12.7026L6.64326 12.6978L6.46698 12.9448ZM6.11984 12.7036L5.94856 12.9541L5.95321 12.9572L6.11984 12.7036ZM4.1752 11.8898L4.15039 12.1922L4.15122 12.1923L4.1752 11.8898ZM2.13861 12.9887L1.85892 12.8711L1.85891 12.8711L2.13861 12.9887ZM2.55237 15.053L2.78598 14.8594L2.78431 14.8574L2.55237 15.053ZM2.97991 13.3473L2.70119 13.2273L2.69943 13.2316L2.97991 13.3473ZM4.09245 12.8048L4.05478 13.1061L4.06683 13.1071L4.09245 12.8048ZM5.60035 13.4622L5.77379 13.2132L5.77046 13.211L5.60035 13.4622ZM5.60048 13.4623L5.42705 13.7112L5.42722 13.7114L5.60048 13.4623ZM5.60064 13.4624L5.77414 13.2135L5.77391 13.2133L5.60064 13.4624ZM6.05548 13.784L5.87701 14.0294L5.88 14.0315L6.05548 13.784ZM6.08034 13.8017L6.25582 13.5542L6.25582 13.5542L6.08034 13.8017ZM8.44606 15.0254L8.3837 15.3223L8.3844 15.3225L8.44606 15.0254ZM10.5884 14.6024L10.762 14.8512L10.7629 14.8506L10.5884 14.6024ZM11.4159 13.3151L11.7162 13.358L11.7164 13.3569L11.4159 13.3151ZM10.4551 11.0807L10.6703 10.8668L10.6696 10.8661L10.4551 11.0807ZM10.3493 10.9749L10.5639 10.7604L10.5635 10.76L10.3493 10.9749ZM10.3032 10.929L10.5174 10.7141L10.5172 10.7139L10.3032 10.929ZM9.94477 10.5014L10.2132 10.3597L10.2098 10.3537L9.94477 10.5014ZM10.2068 9.31979L10.3964 9.55673L10.3997 9.55399L10.2068 9.31979ZM10.4183 9.20945L10.3754 8.90908L10.3721 8.90958L10.4183 9.20945ZM10.832 9.28761L10.9199 8.99721L10.9185 8.99679L10.832 9.28761ZM12.5054 9.6922L12.4492 9.99035L12.4499 9.99047L12.5054 9.6922ZM14.8776 9.09911L14.6325 8.92036L14.632 8.921L14.8776 9.09911ZM15.2224 7.67846L14.9191 7.67004L14.9191 7.67239L15.2224 7.67846ZM15.227 7.51295L14.9238 7.50062L14.9237 7.50452L15.227 7.51295ZM15.8706 5.59116L15.6428 5.39084L15.6425 5.39111L15.8706 5.59116ZM18.5738 5.60955L18.7135 5.3402L18.7121 5.33947L18.5738 5.60955ZM19.0152 6.03253L18.7241 6.11814L18.7254 6.12257L19.0152 6.03253ZM18.5462 7.42559L18.2805 7.27909L18.2788 7.28233L18.5462 7.42559ZM18.4737 7.55993L18.207 7.41525L18.2065 7.41622L18.4737 7.55993ZM18.4735 7.56027L18.7402 7.70495L18.7407 7.70398L18.4735 7.56027ZM18.344 7.80259L18.0746 7.66294L18.0735 7.66517L18.344 7.80259ZM17.9854 9.64163L18.2879 9.61836L18.2876 9.61534L17.9854 9.64163ZM18.1831 10.2623L18.4314 10.088L18.4303 10.0865L18.1831 10.2623ZM18.8313 10.7037L18.7332 10.9908L18.7346 10.9913L18.8313 10.7037ZM20.494 10.9241L20.5041 10.6209L20.5041 10.6209L20.494 10.9241ZM20.5001 10.9243L20.49 11.2276L20.4901 11.2276L20.5001 10.9243ZM22.3068 11.3427L22.1123 11.5756L22.1126 11.5758L22.3068 11.3427ZM22.8171 12.9105L22.5158 12.8746L22.5157 12.8756L22.8171 12.9105ZM21.9574 14.1702L21.7301 13.9693L21.728 13.9716L21.9574 14.1702ZM21.9358 14.1952L22.1652 14.3938L22.1652 14.3938L21.9358 14.1952ZM21.2816 15.0346L21.0198 14.8811L21.0158 14.8884L21.2816 15.0346ZM21.2311 15.1265L21.4935 15.279L21.4969 15.2727L21.2311 15.1265ZM20.7208 16.2299L21.0139 16.3083L21.0139 16.3081L20.7208 16.2299ZM21.4885 19.4299L21.7507 19.2771L21.7503 19.2766L21.4885 19.4299ZM22.8723 20.7218L23.0481 20.4745L23.047 20.4737L22.8723 20.7218ZM22.8891 20.7337L22.7133 20.981L22.8891 20.7337ZM23.8975 21.5953L23.6521 21.7738L23.6533 21.7755L23.8975 21.5953ZM23.9802 22.57L23.7344 22.3922L23.7341 22.3925L23.9802 22.57ZM20.2105 23.3976L20.0994 23.6799L20.1002 23.6802L20.2105 23.3976ZM18.6156 22.437L18.7923 22.1901L18.7839 22.1845L18.6156 22.437ZM18.6156 22.4369L18.4379 22.6832L18.4473 22.6894L18.6156 22.4369ZM18.6152 22.4367L18.7927 22.1906L18.7916 22.1898L18.6152 22.4367ZM18.5711 22.4052L18.7475 22.1583L18.7475 22.1583L18.5711 22.4052ZM18.5709 22.405L18.3945 22.6519L18.3946 22.6519L18.5709 22.405ZM17.8291 21.8942L17.6653 22.1496L17.6659 22.15L17.8291 21.8942ZM14.6891 21.2367L14.5949 20.9483L14.594 20.9486L14.6891 21.2367ZM12.5238 23.3378L12.2681 23.1746L12.2674 23.1757L12.5238 23.3378ZM11.5538 24.6389L11.3434 24.4203L11.3423 24.4214L11.5538 24.6389ZM6.98873 24.4872L6.77334 24.7009L6.77337 24.7009L6.98873 24.4872ZM6.51521 19.7057L6.77568 19.8614L6.77778 19.8577L6.51521 19.7057ZM6.62972 19.521L6.88526 19.6848L6.88988 19.6771L6.62972 19.521ZM6.62975 19.5209L6.37974 19.349L6.37442 19.3568L6.36959 19.3648L6.62975 19.5209ZM6.62977 19.5209L6.87991 19.6929L6.88519 19.6847L6.62977 19.5209ZM6.67611 19.4483L6.93264 19.6103L6.9329 19.6098L6.67611 19.4483ZM6.68125 19.4401L6.42446 19.2785L6.42446 19.2785L6.68125 19.4401ZM7.23698 17.4989L6.94356 17.5761L6.94361 17.5763L7.23698 17.4989ZM5.86699 16.092L5.7207 16.3578L5.7211 16.358L5.86699 16.092ZM4.49701 15.338L4.6433 15.0722L4.64323 15.0722L4.49701 15.338ZM3.24655 14.4461L3.47873 14.2507L3.47584 14.2474L3.24655 14.4461ZM23.6895 3.75506L23.5995 3.46531L23.5971 3.46607L23.6895 3.75506ZM25.3399 3.97115L25.5203 3.72722L25.5191 3.72633L25.3399 3.97115ZM22.2138 4.85388L21.9698 4.67355L21.9698 4.67355L22.2138 4.85388ZM21.5977 6.59177L21.2943 6.5894L21.2943 6.58957L21.5977 6.59177ZM22.2873 8.10437L22.4681 7.86071L22.4677 7.86044L22.2873 8.10437ZM23.9377 8.32045L24.03 8.60949L24.0301 8.60945L23.9377 8.32045ZM25.4134 7.22163L25.1695 7.0413L25.1695 7.0413L25.4134 7.22163ZM26.0295 5.48375L26.3329 5.48612L26.3329 5.48595L26.0295 5.48375ZM23.6573 7.44232L23.5678 7.1524L23.5656 7.15311L23.6573 7.44232ZM24.6733 6.67452L24.4305 6.49247L24.428 6.4959L24.6733 6.67452ZM22.8298 7.36416L22.6497 7.60831V7.60831L22.8298 7.36416ZM22.5126 6.59636L22.8159 6.60342L22.816 6.59993L22.5126 6.59636ZM22.9493 5.40099L23.1921 5.58305L23.1946 5.57962L22.9493 5.40099ZM23.9653 4.6332L23.8781 4.34258L23.8758 4.34329L23.9653 4.6332ZM24.7928 4.71136L24.612 4.95501L24.6127 4.95551L24.7928 4.71136ZM25.11 5.47915L24.8067 5.4721L24.8066 5.47558L25.11 5.47915ZM24.1124 25.8061L23.8498 25.6542L23.8496 25.6545L24.1124 25.8061ZM24.0849 27.4704L23.8076 27.5936L24.0849 27.4704ZM27.3351 25.3693L27.1827 25.6317L27.183 25.6318L27.3351 25.3693ZM28.5626 28.3807L28.825 28.5331L28.8255 28.5322L28.5626 28.3807ZM25.3445 28.8175L25.4971 28.5552L25.496 28.5546L25.3445 28.8175ZM24.9078 26.2658L24.6449 26.1143L24.6441 26.1157L24.9078 26.2658ZM24.9216 27.0934L24.6434 27.2146L24.6448 27.2176L24.9216 27.0934ZM25.7996 28.0175L25.9525 27.7554L25.9508 27.7545L25.7996 28.0175ZM27.7627 27.9164L28.0254 28.0682L27.7627 27.9164ZM26.8708 26.1647L26.7177 26.4266L26.7191 26.4274L26.8708 26.1647ZM27.5539 13.4418L27.4379 13.1614L27.5539 13.4418ZM29.3882 13.2625L29.3174 13.5575L29.3182 13.5577L29.3882 13.2625ZM26.1333 14.6096L26.3923 14.7676L26.3929 14.7667L26.1333 14.6096ZM25.9448 16.2647L26.2251 16.1486L26.2251 16.1486L25.9448 16.2647ZM27.2459 17.2992L27.1754 17.5943L27.1771 17.5947L27.2459 17.2992ZM29.0802 17.1199L28.9641 16.8395H28.9641L29.0802 17.1199ZM30.6938 14.2969L30.4135 14.4131L30.4136 14.4133L30.6938 14.2969ZM27.4573 16.4026L27.5284 16.1077L27.5276 16.1075L27.4573 16.4026ZM28.7262 16.2693L28.8409 16.5502L28.8415 16.5499L28.7262 16.2693ZM26.7907 15.9107L26.5104 16.0268V16.0268L26.7907 15.9107ZM26.9149 15.0877L27.1725 15.2479L27.1737 15.2459L26.9149 15.0877ZM27.9033 14.2878L28.0191 14.5682L28.0206 14.5675L27.9033 14.2878ZM29.1721 14.1544L29.0959 14.4482L29.1018 14.4496L29.1721 14.1544ZM29.8387 14.6464L29.5584 14.7625L29.5589 14.7636L29.8387 14.6464ZM16.3322 26.7019L16.2614 26.997L16.2618 26.997L16.3322 26.7019ZM17.6333 27.741L17.3526 27.8563L17.353 27.8573L17.6333 27.741ZM16.0196 30.5639L16.135 30.8445L16.1356 30.8443L16.0196 30.5639ZM12.8843 29.7042L13.1647 29.5884L13.1646 29.588L12.8843 29.7042ZM13.0728 28.049L12.8143 27.8902L12.8138 27.891L13.0728 28.049ZM15.6702 29.7088L15.7856 29.9894H15.7856L15.6702 29.7088ZM13.7348 29.3502L13.4545 29.4663L13.4553 29.4682L13.7348 29.3502ZM16.7874 28.0858L17.0681 27.9707L17.0677 27.9697L16.7874 28.0858ZM16.1208 27.5939L16.0446 27.8876L16.0505 27.889L16.1208 27.5939ZM14.8519 27.7272L14.9667 28.0081L14.9693 28.007L14.8519 27.7272ZM13.8589 28.5272L14.1166 28.6874L14.1178 28.6854L13.8589 28.5272ZM11.2403 6.28356C11.46 6.28356 11.6785 6.24506 11.8899 6.16917L11.6849 5.59805C11.5377 5.65089 11.3884 5.67676 11.2403 5.67676V6.28356ZM8.76174 4.23412C9.19538 5.4464 10.1783 6.28356 11.2403 6.28356V5.67676C10.5094 5.67676 9.70858 5.07948 9.3331 4.02975L8.76174 4.23412ZM8.66889 2.20769C8.48319 2.84219 8.52235 3.56077 8.76155 4.23357L9.33329 4.0303C9.13116 3.46176 9.10596 2.87462 9.25126 2.37813L8.66889 2.20769ZM9.95757 0.756355C9.33097 0.978176 8.87073 1.51928 8.66893 2.20754L9.25122 2.37827C9.408 1.84358 9.74769 1.47436 10.1601 1.32837L9.95757 0.756355ZM11.8714 1.06323C11.2818 0.659772 10.5827 0.52953 9.95533 0.757158L10.1623 1.32757C10.574 1.1782 11.0702 1.25025 11.5287 1.56402L11.8714 1.06323ZM13.0847 2.6924C12.8449 2.01797 12.4173 1.43925 11.8721 1.06375L11.5279 1.56349C11.9574 1.85924 12.3114 2.32876 12.5129 2.89568L13.0847 2.6924ZM13.1773 4.71829C13.363 4.08378 13.3239 3.36521 13.0847 2.6924L12.5129 2.89568C12.7151 3.46422 12.7403 4.05136 12.5949 4.54785L13.1773 4.71829ZM11.8886 6.16962C12.5152 5.9478 12.9755 5.4067 13.1773 4.71844L12.595 4.5477C12.4382 5.0824 12.0985 5.45162 11.6861 5.5976L11.8886 6.16962ZM10.1339 2.64019C10.1846 2.4669 10.2907 2.26231 10.4712 2.1962L10.2625 1.62641C9.79018 1.79938 9.61118 2.26603 9.55156 2.46975L10.1339 2.64019ZM10.198 3.7234C10.0638 3.34129 10.0483 2.94562 10.1349 2.6369L9.55062 2.47303C9.42573 2.91832 9.45615 3.44216 9.62543 3.92439L10.198 3.7234ZM11.3738 4.73316C11.2322 4.78316 11.0231 4.75087 10.7844 4.56843C10.5507 4.38987 10.3294 4.09347 10.1976 3.72235L9.6258 3.92544C9.79282 4.39569 10.0795 4.79352 10.4159 5.05058C10.7472 5.30375 11.1703 5.44848 11.5758 5.30537L11.3738 4.73316ZM11.7077 4.29039C11.657 4.46367 11.5509 4.66827 11.3704 4.73437L11.5791 5.30417C12.0514 5.13119 12.2304 4.66455 12.2901 4.46083L11.7077 4.29039ZM11.6446 3.20527C11.7822 3.58582 11.7974 3.98379 11.7077 4.29039L12.2901 4.46083C12.421 4.01342 12.3902 3.48268 12.2152 2.99889L11.6446 3.20527ZM11.009 2.32244C11.2695 2.50112 11.5098 2.82127 11.6436 3.20257L12.2162 3.00158C12.0466 2.51854 11.7352 2.08469 11.3521 1.822L11.009 2.32244ZM10.5967 2.17333C10.7446 2.17333 10.9032 2.25198 11.0122 2.32466L11.3489 1.81978C11.2096 1.72695 10.927 1.56653 10.5967 1.56653V2.17333ZM10.4678 2.19741C10.5165 2.18022 10.5606 2.17333 10.5967 2.17333V1.56653C10.4857 1.56653 10.3734 1.58723 10.2659 1.6252L10.4678 2.19741ZM4.79805 7.2848C4.52957 7.44045 4.22394 7.51973 3.90205 7.51973V8.12653C4.32491 8.12653 4.73646 8.02191 5.1024 7.80976L4.79805 7.2848ZM5.23011 3.50167C5.66388 4.25115 5.81813 5.05696 5.72911 5.74579C5.6401 6.43446 5.31279 6.98788 4.79863 7.28446L5.10182 7.81009C5.81513 7.39864 6.22338 6.65554 6.33091 5.82357C6.43841 4.99175 6.25018 4.05279 5.7553 3.19771L5.23011 3.50167ZM1.73662 1.98036C2.25091 1.68371 2.89337 1.67714 3.53401 1.94465C4.17487 2.21226 4.79592 2.74932 5.22992 3.50134L5.75549 3.19804C5.26083 2.34091 4.54179 1.70789 3.76783 1.38471C2.99367 1.06143 2.14662 1.04336 1.43343 1.45474L1.73662 1.98036ZM1.30514 5.76316C0.871378 5.01368 0.717119 4.20786 0.806145 3.51904C0.895152 2.83036 1.22246 2.27694 1.73662 1.98036L1.43343 1.45474C0.720124 1.86618 0.311873 2.60928 0.204347 3.44126C0.0968396 4.27308 0.285077 5.21204 0.779957 6.06711L1.30514 5.76316ZM2.93966 7.29732C2.29874 7.01429 1.71449 6.46987 1.30509 5.76307L0.780011 6.06721C1.24409 6.86841 1.9195 7.51016 2.69453 7.85241L2.93966 7.29732ZM3.90205 7.51973C3.60064 7.51973 3.27514 7.44828 2.94161 7.29819L2.69258 7.85154C3.09462 8.03246 3.50467 8.12653 3.90205 8.12653V7.51973ZM1.89371 2.2498C1.38797 2.5401 1.14067 3.1017 1.09904 3.69928C1.0571 4.30144 1.21689 4.9851 1.57497 5.60681L2.10079 5.30395C1.79686 4.77626 1.67162 4.21168 1.70438 3.74145C1.73746 3.26665 1.9246 2.93173 2.19579 2.77607L1.89371 2.2498ZM4.96003 3.65297C4.60153 3.03303 4.08826 2.55399 3.54528 2.28958C3.00685 2.02738 2.3963 1.9596 1.89304 2.25019L2.19647 2.77568C2.46555 2.6203 2.85031 2.62608 3.27961 2.83513C3.70434 3.04197 4.13121 3.43187 4.43473 3.95673L4.96003 3.65297ZM4.64154 7.01043C5.14752 6.72 5.39461 6.15701 5.43621 5.5592C5.47815 4.95659 5.31843 4.27276 4.96003 3.65297L4.43473 3.95673C4.73833 4.48174 4.86364 5.04615 4.83087 5.51707C4.79777 5.9928 4.61042 6.32863 4.33946 6.48416L4.64154 7.01043ZM3.06551 7.01043C3.60995 7.25415 4.17648 7.27876 4.64212 7.0101L4.33887 6.4845C4.08735 6.62962 3.73442 6.64504 3.31344 6.45658L3.06551 7.01043ZM1.57521 5.60722C1.94149 6.24083 2.46463 6.74624 3.06736 7.01125L3.31159 6.45576C2.84776 6.25182 2.41466 5.8469 2.10055 5.30353L1.57521 5.60722ZM5.57654 16.6492L4.20656 15.8952L3.91398 16.4268L5.28396 17.1808L5.57654 16.6492ZM6.64772 17.6699C6.57792 17.4047 6.39429 17.2035 6.2058 17.0506C6.01536 16.8961 5.78584 16.7642 5.57636 16.6491L5.28414 17.1809C5.49302 17.2957 5.67956 17.4051 5.82356 17.5219C5.96952 17.6403 6.03875 17.7402 6.06089 17.8244L6.64772 17.6699ZM6.16961 19.1219C6.30475 18.907 6.45305 18.6726 6.55187 18.4434C6.65061 18.2145 6.72086 17.9451 6.64752 17.6692L6.06108 17.8251C6.08326 17.9085 6.07129 18.0255 5.99467 18.2031C5.91812 18.3806 5.7979 18.5731 5.65594 18.7989L6.16961 19.1219ZM6.16061 19.1362L6.16961 19.1219L5.65594 18.7989L5.64693 18.8132L6.16061 19.1362ZM5.98924 19.4067C6.04112 19.3202 6.09785 19.2328 6.15816 19.14L5.64938 18.8094C5.59016 18.9005 5.52736 18.997 5.46891 19.0945L5.98924 19.4067ZM6.55146 24.9403C5.18427 23.5602 4.92947 21.1759 5.98936 19.4065L5.46879 19.0947C4.27602 21.086 4.54531 23.7774 6.12037 25.3674L6.55146 24.9403ZM9.39769 26.0918C8.35824 26.0918 7.30723 25.7004 6.55106 24.9399L6.12077 25.3678C7.00123 26.2532 8.21207 26.6986 9.39769 26.6986V26.0918ZM11.9817 25.0969C11.3008 25.7568 10.364 26.0918 9.39769 26.0918V26.6986C10.5002 26.6986 11.5954 26.3163 12.404 25.5326L11.9817 25.0969ZM13.0395 23.6863C12.7156 24.2 12.3977 24.6937 11.9817 25.0969L12.404 25.5326C12.8798 25.0715 13.2331 24.5169 13.5528 24.01L13.0395 23.6863ZM13.0475 23.6738L13.0404 23.6849L13.5519 24.0114L13.559 24.0004L13.0475 23.6738ZM14.8788 21.836C14.4438 21.9801 14.1043 22.26 13.8178 22.5869C13.5341 22.9105 13.2869 23.2989 13.0475 23.6738L13.5589 24.0004C13.8042 23.6163 14.0265 23.2693 14.2741 22.9868C14.5189 22.7076 14.7726 22.5104 15.0696 22.4121L14.8788 21.836ZM17.4952 22.4242C17.1673 22.216 16.7549 21.9948 16.3093 21.8615C15.8642 21.7284 15.3649 21.6767 14.8797 21.8357L15.0687 22.4124C15.3972 22.3047 15.7622 22.3312 16.1354 22.4429C16.5081 22.5544 16.868 22.7447 17.1699 22.9365L17.4952 22.4242ZM18.0752 22.8219C17.8886 22.6892 17.6954 22.5516 17.4955 22.4244L17.1697 22.9363C17.3542 23.0537 17.5347 23.1821 17.7234 23.3163L18.0752 22.8219ZM18.2519 22.9472C18.1931 22.9058 18.1345 22.864 18.0752 22.8219L17.7234 23.3163C17.7825 23.3584 17.8424 23.401 17.9027 23.4434L18.2519 22.9472ZM19.9852 23.9839C19.3551 23.7379 18.8097 23.3515 18.2554 22.9496L17.8992 23.4409C18.4483 23.839 19.0522 24.271 19.7645 24.5491L19.9852 23.9839ZM24.479 22.9395C23.4748 24.3297 21.4274 24.546 19.985 23.9838L19.7647 24.5492C21.3657 25.1732 23.7501 24.9849 24.9709 23.2948L24.479 22.9395ZM24.3931 21.2416C24.5193 21.4134 24.6359 21.7197 24.6671 22.0587C24.6982 22.3972 24.6397 22.7162 24.4787 22.9399L24.9712 23.2943C25.247 22.9111 25.3103 22.4279 25.2713 22.0032C25.2324 21.579 25.0869 21.1611 24.8821 20.8824L24.3931 21.2416ZM23.2462 20.2406C23.7014 20.5657 24.1226 20.8702 24.3924 21.2406L24.8829 20.8834C24.5444 20.4185 24.0346 20.058 23.5989 19.7468L23.2462 20.2406ZM23.2292 20.2285L23.2462 20.2406L23.5989 19.7469L23.5819 19.7347L23.2292 20.2285ZM22.021 19.1263C22.1505 19.3508 22.3497 19.5501 22.5577 19.7256C22.7677 19.9027 23.0072 20.0722 23.2309 20.2296L23.5802 19.7335C23.3533 19.5737 23.1355 19.4191 22.9489 19.2617C22.7604 19.1027 22.624 18.9572 22.5466 18.8231L22.021 19.1263ZM21.3148 16.3958C21.1863 16.8797 21.2565 17.3731 21.4058 17.8304C21.5551 18.2876 21.7913 18.7318 22.0216 19.1274L22.546 18.822C22.3212 18.436 22.1115 18.0366 21.9826 17.642C21.8538 17.2477 21.8137 16.8813 21.9013 16.5515L21.3148 16.3958ZM21.7422 15.481C21.5803 15.762 21.402 16.0674 21.3148 16.3957L21.9013 16.5515C21.964 16.3154 22.0964 16.0817 22.2679 15.784L21.7422 15.481ZM21.7635 15.444L21.7422 15.481L22.2679 15.784L22.2893 15.7469L21.7635 15.444ZM21.8214 15.3474L21.7662 15.4394L22.2865 15.7516L22.3417 15.6596L21.8214 15.3474ZM22.4017 14.6075C22.1815 14.8615 21.943 15.1345 21.8181 15.353L22.345 15.6541C22.433 15.5 22.6213 15.2805 22.8603 15.0049L22.4017 14.6075ZM22.4027 14.6063L22.4027 14.6064L22.8593 15.006L22.8594 15.0059L22.4027 14.6063ZM22.4166 14.5915L22.4165 14.5916L22.8456 15.0206L22.8456 15.0206L22.4166 14.5915ZM22.4269 14.5784L22.4018 14.6074L22.8604 15.0048L22.8855 14.9758L22.4269 14.5784ZM22.4349 14.5692L22.4265 14.5789L22.8859 14.9753L22.8943 14.9656L22.4349 14.5692ZM22.4501 14.5528L22.4501 14.5529L22.8791 14.9819L22.8791 14.9819L22.4501 14.5528ZM23.4309 12.9881C23.4029 13.2138 23.2884 13.4606 23.1029 13.7351C22.9183 14.0084 22.6822 14.2826 22.4349 14.5692L22.8943 14.9656C23.1363 14.6851 23.3974 14.3832 23.6057 14.0748C23.8134 13.7675 23.9879 13.4268 24.0331 13.0628L23.4309 12.9881ZM22.702 10.8732C23.2419 11.3192 23.5358 12.1238 23.4308 12.9889L24.0332 13.062C24.158 12.0329 23.8175 11.0076 23.0885 10.4054L22.702 10.8732ZM20.5216 10.3128C21.3604 10.3409 22.1007 10.3754 22.7018 10.873L23.0887 10.4056C22.3038 9.75574 21.3464 9.7333 20.542 9.70634L20.5216 10.3128ZM20.5176 10.3127L20.5217 10.3128L20.5419 9.70633L20.5378 9.7062L20.5176 10.3127ZM20.4776 10.3112L20.5168 10.3126L20.5386 9.70622L20.4994 9.70482L20.4776 10.3112ZM19.0231 10.1219C19.4811 10.2779 19.9932 10.2939 20.4776 10.3112L20.4994 9.70482C19.9926 9.68664 19.576 9.66924 19.2187 9.54753L19.0231 10.1219ZM18.661 9.87385C18.7024 9.95663 18.7722 10.005 18.8146 10.0306C18.8676 10.0626 18.936 10.0929 19.025 10.1226L19.2169 9.54689C19.1541 9.52596 19.1305 9.51255 19.1284 9.51125C19.1276 9.51078 19.1355 9.5154 19.1475 9.52638C19.1536 9.53196 19.1618 9.54019 19.1709 9.55129C19.1792 9.56148 19.1919 9.57862 19.2038 9.6025L18.661 9.87385ZM18.593 9.58048C18.5983 9.65518 18.6071 9.71649 18.6197 9.76693C18.626 9.79222 18.6345 9.81948 18.6464 9.84657C18.6562 9.8689 18.6773 9.91215 18.7179 9.95271L19.147 9.52364C19.1669 9.54357 19.1795 9.5621 19.1866 9.57342C19.1941 9.58554 19.1989 9.59566 19.2018 9.60219C19.2074 9.61492 19.2089 9.62207 19.2084 9.61977C19.2072 9.61504 19.2021 9.59129 19.1983 9.53726L18.593 9.58048ZM18.8888 8.08043C18.6497 8.53777 18.5469 9.0744 18.5935 9.58634L19.1978 9.5314C19.1616 9.13302 19.2427 8.71335 19.4266 8.36152L18.8888 8.08043ZM19.079 7.72313C19.0149 7.84227 18.9495 7.96378 18.8885 8.08101L19.4269 8.36094C19.4854 8.24829 19.5487 8.13072 19.6133 8.0108L19.079 7.72313ZM19.085 7.71211L19.0795 7.72234L19.6129 8.01159L19.6184 8.00136L19.085 7.71211ZM19.5942 5.85102C19.6787 6.1237 19.6495 6.41626 19.5442 6.73615C19.4378 7.05969 19.2639 7.38221 19.085 7.71211L19.6184 8.00136C19.7922 7.6809 19.9942 7.31015 20.1207 6.92577C20.2483 6.53774 20.309 6.10775 20.1739 5.67153L19.5942 5.85102ZM18.8442 5.06096C19.2661 5.27809 19.5005 5.54882 19.5943 5.85119L20.1738 5.67135C20.0194 5.17374 19.6469 4.79162 19.1218 4.52141L18.8442 5.06096ZM18.8406 5.05916L18.8453 5.06155L19.1207 4.52082L19.116 4.51843L18.8406 5.05916ZM15.3994 5.18492C15.9689 4.53892 16.6247 4.41412 17.2421 4.49168C17.878 4.57157 18.4611 4.86589 18.8406 5.05916L19.116 4.51843C18.7435 4.32874 18.0725 3.98443 17.3178 3.88961C16.5445 3.79247 15.6731 3.95689 14.9443 4.78364L15.3994 5.18492ZM14.6016 7.49159C14.6366 6.51232 14.924 5.72189 15.399 5.18541L14.9447 4.78315C14.3532 5.45123 14.0338 6.38949 13.9952 7.46994L14.6016 7.49159ZM14.5971 7.66346L14.6017 7.48875L13.9951 7.47278L13.9905 7.64749L14.5971 7.66346ZM14.3702 8.73344C14.4872 8.57039 14.5371 8.3779 14.5624 8.20301C14.5879 8.02734 14.5926 7.83613 14.5971 7.66335L13.9905 7.6476C13.9858 7.82883 13.9813 7.98243 13.9619 8.11595C13.9424 8.25025 13.9119 8.33132 13.8771 8.37975L14.3702 8.73344ZM12.6068 9.08486C12.8805 9.13528 13.2114 9.17383 13.5183 9.14612C13.8154 9.11928 14.1611 9.02332 14.3697 8.73411L13.8776 8.37908C13.8242 8.45308 13.701 8.52034 13.4637 8.54177C13.2361 8.56233 12.9671 8.53422 12.7167 8.4881L12.6068 9.08486ZM10.9851 8.69583C11.5234 8.85501 12.0672 8.98633 12.6072 9.08494L12.7163 8.48801C12.1989 8.39353 11.6761 8.26738 11.1571 8.11393L10.9851 8.69583ZM10.3111 8.60312C10.5407 8.56543 10.7531 8.62483 10.9823 8.69499L11.1599 8.11477C10.9385 8.04699 10.5993 7.94089 10.2128 8.00434L10.3111 8.60312ZM9.81509 8.84198C9.98189 8.7055 10.15 8.62998 10.3119 8.603L10.2121 8.00446C9.9326 8.05104 9.66858 8.17782 9.43082 8.37236L9.81509 8.84198ZM9.40486 10.8035C9.05816 10.1854 9.23275 9.31565 9.81441 8.84254L9.43151 8.3718C8.63399 9.02049 8.37644 10.2104 8.87563 11.1004L9.40486 10.8035ZM9.91765 11.4153C9.7216 11.2239 9.53711 11.0408 9.40527 10.8042L8.87523 11.0996C9.05599 11.424 9.30365 11.6639 9.49376 11.8495L9.91765 11.4153ZM10.0163 11.5095L9.91521 11.4129L9.49621 11.8518L9.59735 11.9484L10.0163 11.5095ZM10.8105 13.2296C10.8627 12.8676 10.7467 12.5251 10.589 12.2425C10.4301 11.958 10.214 11.707 10.0214 11.5144L9.5923 11.9435C9.76293 12.1141 9.93752 12.3205 10.0591 12.5383C10.1818 12.758 10.2359 12.9626 10.2099 13.1431L10.8105 13.2296ZM10.2446 14.1003C10.4486 13.9554 10.7478 13.6751 10.8107 13.2287L10.2098 13.144C10.1807 13.3504 10.0386 13.5024 9.89315 13.6057L10.2446 14.1003ZM8.58095 14.4257C9.13614 14.5431 9.78391 14.424 10.2433 14.1013L9.8945 13.6047C9.58154 13.8246 9.10758 13.9169 8.70654 13.832L8.58095 14.4257ZM6.42767 13.2891C7.09227 13.7606 7.78045 14.2545 8.58029 14.4256L8.70719 13.8322C8.05218 13.6921 7.46762 13.2829 6.7788 12.7942L6.42767 13.2891ZM6.41779 13.2821L6.42766 13.2891L6.77881 12.7942L6.76893 12.7872L6.41779 13.2821ZM6.29072 13.1917C6.33279 13.2217 6.37553 13.2522 6.41839 13.2825L6.76834 12.7868C6.72701 12.7576 6.68556 12.728 6.64328 12.6978L6.29072 13.1917ZM6.27745 13.1817L6.27746 13.1817L6.65653 12.7078L6.65652 12.7078L6.27745 13.1817ZM5.95321 12.9572C6.06508 13.0307 6.17545 13.1094 6.29071 13.1917L6.64326 12.6978C6.52961 12.6167 6.40975 12.5311 6.28647 12.4501L5.95321 12.9572ZM4.15122 12.1923C4.82031 12.2453 5.41657 12.5903 5.94859 12.9541L6.2911 12.4532C5.74736 12.0813 5.03799 11.6539 4.19918 11.5874L4.15122 12.1923ZM2.41831 13.1062C2.66136 12.528 3.35845 12.1272 4.15039 12.1922L4.20001 11.5875C3.19901 11.5053 2.2227 12.0057 1.85892 12.8711L2.41831 13.1062ZM2.78431 14.8574C2.32379 14.3112 2.20392 13.6164 2.41832 13.1062L1.85891 12.8711C1.54003 13.6299 1.74196 14.5625 2.32042 15.2486L2.78431 14.8574ZM4.2064 15.8951C3.68918 15.6108 3.16647 15.3185 2.78597 14.8594L2.31876 15.2466C2.78416 15.8081 3.41076 16.1502 3.91414 16.4269L4.2064 15.8951ZM3.98671 12.4968C3.74731 12.4968 3.48796 12.5524 3.26004 12.666C3.03248 12.7794 2.81545 12.9619 2.70122 13.2273L3.2586 13.4672C3.30068 13.3694 3.39166 13.2784 3.53074 13.209C3.66945 13.1399 3.83535 13.1036 3.98671 13.1036V12.4968ZM4.13008 12.5037C4.07191 12.4964 4.02167 12.4968 3.98671 12.4968V13.1036C4.02531 13.1036 4.03943 13.1039 4.05481 13.1058L4.13008 12.5037ZM5.77046 13.211C5.32997 12.9127 4.74729 12.5558 4.11807 12.5024L4.06683 13.1071C4.52256 13.1457 4.98806 13.414 5.43024 13.7134L5.77046 13.211ZM5.77391 13.2133L5.77378 13.2133L5.42693 13.7112L5.42705 13.7112L5.77391 13.2133ZM5.77377 13.2133L5.77374 13.2132L5.42722 13.7114L5.42725 13.7114L5.77377 13.2133ZM5.77381 13.2133L5.77377 13.2133L5.42725 13.7114L5.42728 13.7114L5.77381 13.2133ZM5.77384 13.2133L5.77381 13.2133L5.42728 13.7114L5.42732 13.7114L5.77384 13.2133ZM5.77387 13.2133L5.77384 13.2133L5.42732 13.7114L5.42735 13.7115L5.77387 13.2133ZM5.77391 13.2133L5.77387 13.2133L5.42735 13.7115L5.42738 13.7115L5.77391 13.2133ZM6.23394 13.5387C6.07946 13.4263 5.92536 13.3189 5.77414 13.2135L5.42715 13.7113C5.57916 13.8173 5.72828 13.9212 5.87702 14.0294L6.23394 13.5387ZM6.25582 13.5542L6.23096 13.5365L5.88 14.0315L5.90486 14.0492L6.25582 13.5542ZM8.50842 14.7285C7.67096 14.5526 6.98257 14.0694 6.25582 13.5542L5.90486 14.0492C6.61515 14.5528 7.40323 15.1164 8.3837 15.3223L8.50842 14.7285ZM10.4148 14.3536C9.89288 14.7177 9.16025 14.8638 8.50772 14.7283L8.3844 15.3225C9.1938 15.4905 10.0978 15.3147 10.762 14.8512L10.4148 14.3536ZM11.1155 13.2722C11.0552 13.6947 10.8181 14.0701 10.4139 14.3542L10.7629 14.8506C11.2873 14.4819 11.6295 13.9654 11.7162 13.358L11.1155 13.2722ZM10.2398 11.2945C10.9329 11.992 11.1987 12.675 11.1154 13.2732L11.7164 13.3569C11.8354 12.5023 11.4391 11.6406 10.6703 10.8668L10.2398 11.2945ZM10.1348 11.1895L10.2405 11.2952L10.6696 10.8661L10.5639 10.7604L10.1348 11.1895ZM10.0891 11.1439L10.1352 11.1898L10.5635 10.76L10.5174 10.7141L10.0891 11.1439ZM9.67644 10.643C9.78132 10.8417 9.95439 11.01 10.0893 11.1441L10.5172 10.7139C10.3638 10.5613 10.2662 10.4603 10.2131 10.3598L9.67644 10.643ZM10.0173 9.08288C9.78377 9.2697 9.635 9.53847 9.5744 9.81226C9.51399 10.0852 9.53559 10.3902 9.6797 10.649L10.2098 10.3537C10.1517 10.2493 10.1319 10.1015 10.1669 9.94339C10.2017 9.78616 10.2851 9.64575 10.3964 9.55671L10.0173 9.08288ZM10.3721 8.90958C10.2377 8.93026 10.1144 9.00289 10.0139 9.0856L10.3997 9.55399C10.4251 9.53311 10.4451 9.52049 10.4586 9.51354C10.4729 9.50618 10.4747 9.50775 10.4644 9.50933L10.3721 8.90958ZM10.9185 8.99679C10.8347 8.97188 10.7444 8.94547 10.6608 8.92766C10.5822 8.9109 10.4783 8.89439 10.3754 8.9091L10.4612 9.50981C10.4548 9.51072 10.4728 9.50801 10.5343 9.52113C10.591 9.53321 10.6592 9.55277 10.7456 9.57843L10.9185 8.99679ZM12.5617 9.39405C12.0097 9.28998 11.455 9.15909 10.9199 8.99721L10.7442 9.57801C11.3032 9.74716 11.8795 9.88292 12.4492 9.99035L12.5617 9.39405ZM14.632 8.921C14.2976 9.38219 13.6509 9.59691 12.561 9.39393L12.4499 9.99047C13.6311 10.2105 14.5842 10.0206 15.1233 9.27722L14.632 8.921ZM14.9191 7.67239C14.9097 8.1437 14.8902 8.56682 14.6325 8.92036L15.1228 9.27786C15.5086 8.74867 15.5168 8.13273 15.5258 7.68453L14.9191 7.67239ZM14.9237 7.50452L14.9191 7.67004L15.5257 7.68688L15.5303 7.52137L14.9237 7.50452ZM15.6425 5.39111C15.08 6.03258 14.9476 6.91651 14.9239 7.50062L15.5302 7.52527C15.5524 6.97838 15.6775 6.27155 16.0987 5.79121L15.6425 5.39111ZM18.7121 5.33947C18.0192 4.98485 17.4415 4.78137 16.9381 4.77801C16.4071 4.77446 15.9927 4.99284 15.6428 5.39084L16.0985 5.79149C16.3509 5.50445 16.6053 5.3826 16.934 5.3848C17.2903 5.38718 17.7631 5.53542 18.4356 5.87963L18.7121 5.33947ZM19.3062 5.94692C19.2242 5.66785 18.9818 5.47931 18.7135 5.34021L18.4342 5.87889C18.6624 5.99725 18.7142 6.08457 18.7241 6.11813L19.3062 5.94692ZM18.8119 7.57209C18.9459 7.32916 19.0994 7.04902 19.2042 6.78369C19.3029 6.53406 19.3914 6.22088 19.3049 5.94248L18.7254 6.12257C18.7447 6.1844 18.7343 6.32178 18.6399 6.56064C18.5517 6.78381 18.4179 7.03009 18.2806 7.2791L18.8119 7.57209ZM18.7404 7.70461C18.7644 7.66037 18.789 7.61496 18.8137 7.56885L18.2788 7.28233C18.255 7.32679 18.2311 7.37081 18.207 7.41525L18.7404 7.70461ZM18.7407 7.70398L18.7409 7.70364L18.2065 7.41622L18.2063 7.41657L18.7407 7.70398ZM18.6133 7.94225C18.6535 7.86484 18.6957 7.78699 18.7402 7.70495L18.2068 7.4156C18.1628 7.49677 18.1178 7.57963 18.0746 7.66294L18.6133 7.94225ZM18.2876 9.61534C18.2374 9.03779 18.3503 8.45999 18.6145 7.94002L18.0735 7.66517C17.7584 8.2854 17.623 8.97653 17.6831 9.66791L18.2876 9.61534ZM18.4303 10.0865C18.3317 9.94784 18.3004 9.78093 18.2879 9.61836L17.6829 9.66489C17.698 9.86093 17.7402 10.163 17.9358 10.4381L18.4303 10.0865ZM18.9293 10.4165C18.7542 10.3567 18.5574 10.2676 18.4314 10.088L17.9347 10.4366C18.1765 10.7811 18.5314 10.9219 18.7332 10.9908L18.9293 10.4165ZM20.5041 10.6209C19.9472 10.6024 19.4241 10.5829 18.928 10.4161L18.7346 10.9913C19.3286 11.1909 19.9412 11.2093 20.4839 11.2274L20.5041 10.6209ZM20.5102 10.6211L20.5041 10.6209L20.4839 11.2274L20.49 11.2276L20.5102 10.6211ZM22.5013 11.1099C22.2228 10.8772 21.8887 10.7641 21.5517 10.7038C21.2176 10.6441 20.8546 10.6324 20.5101 10.6211L20.4901 11.2276C20.8444 11.2392 21.1618 11.2506 21.4449 11.3012C21.725 11.3513 21.9449 11.4358 22.1123 11.5756L22.5013 11.1099ZM23.1184 12.9464C23.1835 12.4 23.0845 11.5959 22.5011 11.1097L22.1126 11.5758C22.467 11.8712 22.5702 12.4188 22.5158 12.8746L23.1184 12.9464ZM22.1848 14.3711C22.3589 14.1741 22.573 13.9292 22.7486 13.6912C22.8365 13.5721 22.9191 13.4489 22.9835 13.3295C23.0454 13.2147 23.1028 13.0811 23.1185 12.9454L22.5157 12.8756C22.5131 12.8985 22.4975 12.9523 22.4493 13.0416C22.4036 13.1264 22.3391 13.2242 22.2604 13.3309C22.1027 13.5446 21.9053 13.771 21.7301 13.9693L22.1848 14.3711ZM22.1652 14.3938L22.1868 14.3688L21.728 13.9716L21.7064 13.9966L22.1652 14.3938ZM21.5434 15.188C21.6783 14.9579 21.9004 14.6997 22.1652 14.3938L21.7065 13.9966C21.454 14.2882 21.1891 14.5924 21.0199 14.8812L21.5434 15.188ZM21.4969 15.2727L21.5475 15.1808L21.0158 14.8884L20.9652 14.9803L21.4969 15.2727ZM21.0139 16.3081C21.1123 15.9392 21.2934 15.6231 21.4934 15.279L20.9687 14.9741C20.7733 15.3104 20.5499 15.6931 20.4276 16.1518L21.0139 16.3081ZM21.7503 19.2766C21.199 18.3346 20.7456 17.3123 21.0139 16.3083L20.4276 16.1516C20.0891 17.4188 20.6747 18.6401 21.2267 19.5831L21.7503 19.2766ZM23.047 20.4737C22.5066 20.0931 22.0194 19.7385 21.7507 19.2771L21.2263 19.5826C21.5736 20.1786 22.1806 20.6057 22.6976 20.9698L23.047 20.4737ZM23.0649 20.4865L23.0481 20.4745L22.6964 20.969L22.7133 20.981L23.0649 20.4865ZM24.1428 21.4169C23.8895 21.0685 23.4576 20.7657 23.0649 20.4865L22.7133 20.981C23.1356 21.2813 23.4701 21.5235 23.6521 21.7738L24.1428 21.4169ZM24.226 22.7478C24.3073 22.6354 24.3406 22.5023 24.3544 22.391C24.3687 22.2749 24.3655 22.1529 24.3523 22.039C24.3274 21.8253 24.2588 21.574 24.1416 21.4152L23.6533 21.7755C23.6786 21.8098 23.7296 21.9377 23.7495 22.1091C23.7587 22.1878 23.7592 22.2597 23.7522 22.3164C23.7445 22.3779 23.7312 22.3965 23.7344 22.3922L24.226 22.7478ZM20.1002 23.6802C20.7606 23.9379 21.5579 24.0162 22.3015 23.8805C23.0455 23.7447 23.764 23.3885 24.2263 22.7475L23.7341 22.3925C23.3874 22.8733 22.8278 23.1676 22.1926 23.2836C21.557 23.3996 20.874 23.3308 20.3207 23.1149L20.1002 23.6802ZM18.4391 22.6837C18.9659 23.0607 19.4975 23.4431 20.0994 23.6799L20.3215 23.1152C19.802 22.9108 19.3316 22.5762 18.7922 22.1902L18.4391 22.6837ZM18.4473 22.6894L18.4473 22.6894L18.7839 22.1845L18.7839 22.1845L18.4473 22.6894ZM18.4377 22.6827L18.4381 22.683L18.793 22.1909L18.7927 22.1906L18.4377 22.6827ZM18.3947 22.652L18.4388 22.6835L18.7916 22.1898L18.7475 22.1583L18.3947 22.652ZM18.3947 22.652L18.3948 22.6521L18.7475 22.1583L18.7474 22.1583L18.3947 22.652ZM18.3947 22.652L18.3947 22.652L18.7474 22.1583L18.7474 22.1582L18.3947 22.652ZM18.3947 22.652L18.3947 22.652L18.7474 22.1582L18.7474 22.1582L18.3947 22.652ZM18.3946 22.652L18.3947 22.652L18.7474 22.1582L18.7473 22.1582L18.3946 22.652ZM18.3946 22.6519L18.3946 22.652L18.7473 22.1582L18.7473 22.1581L18.3946 22.6519ZM17.6659 22.15C17.9094 22.3053 18.1502 22.4773 18.3945 22.6519L18.7473 22.1582C18.5053 21.9852 18.2515 21.8038 17.9923 21.6384L17.6659 22.15ZM14.7834 21.5251C15.5809 21.2646 16.5697 21.4471 17.6653 22.1496L17.9928 21.6388C16.8082 20.8792 15.6271 20.6112 14.5949 20.9483L14.7834 21.5251ZM12.7796 23.501C13.3419 22.6199 13.8594 21.8304 14.7843 21.5248L14.594 20.9486C13.4318 21.3326 12.8091 22.327 12.2681 23.1746L12.7796 23.501ZM11.7642 24.8575C12.163 24.4736 12.476 23.9814 12.7803 23.4999L12.2674 23.1757C11.9556 23.6689 11.6802 24.0962 11.3434 24.4203L11.7642 24.8575ZM6.77337 24.7009C8.09426 26.0319 10.4593 26.1268 11.7654 24.8564L11.3423 24.4214C10.2945 25.4406 8.31054 25.3884 7.20408 24.2735L6.77337 24.7009ZM6.25476 19.5501C5.2887 21.1669 5.49993 23.4174 6.77334 24.7009L7.20411 24.2735C6.14211 23.2031 5.93959 21.2606 6.77566 19.8613L6.25476 19.5501ZM6.37429 19.3573C6.33548 19.4178 6.293 19.484 6.25263 19.5537L6.77778 19.8577C6.81014 19.8018 6.84514 19.7471 6.88515 19.6847L6.37429 19.3573ZM6.36957 19.3649L6.36955 19.3649L6.88988 19.6771L6.8899 19.6771L6.36957 19.3649ZM6.36959 19.3648L6.36957 19.3649L6.8899 19.6771L6.88992 19.677L6.36959 19.3648ZM6.37975 19.349L6.37974 19.349L6.87977 19.6928L6.87979 19.6928L6.37975 19.349ZM6.41958 19.2862C6.40474 19.3098 6.3898 19.3331 6.37435 19.3572L6.88519 19.6847C6.9005 19.6608 6.91652 19.6358 6.93264 19.6103L6.41958 19.2862ZM6.42446 19.2785L6.41932 19.2867L6.9329 19.6098L6.93804 19.6017L6.42446 19.2785ZM6.94361 17.5763C7.10132 18.1742 6.77383 18.7233 6.42446 19.2785L6.93804 19.6017C7.25818 19.093 7.76598 18.3148 7.53035 17.4215L6.94361 17.5763ZM5.7211 16.358C6.29677 16.6738 6.7961 17.0157 6.94356 17.5761L7.53039 17.4217C7.31008 16.5844 6.57734 16.1356 6.01289 15.826L5.7211 16.358ZM4.35072 15.6038L5.7207 16.3578L6.01328 15.8262L4.6433 15.0722L4.35072 15.6038ZM3.0144 14.6414C3.37467 15.0696 3.90245 15.3573 4.35079 15.6039L4.64323 15.0722C4.17211 14.813 3.75286 14.5766 3.47871 14.2508L3.0144 14.6414ZM2.69943 13.2316C2.59019 13.4964 2.60648 13.7759 2.67506 14.0149C2.74375 14.2542 2.87074 14.4757 3.01727 14.6448L3.47584 14.2474C3.38331 14.1406 3.30112 13.9966 3.25833 13.8475C3.21543 13.698 3.21792 13.5659 3.26039 13.463L2.69943 13.2316ZM23.7795 4.04481C24.3103 3.87992 24.8047 3.9554 25.1607 4.21597L25.5191 3.72633C24.9832 3.33404 24.2823 3.2532 23.5995 3.46532L23.7795 4.04481ZM22.4577 5.03421C22.8154 4.55029 23.2889 4.20165 23.7819 4.04405L23.5971 3.46607C22.9683 3.66708 22.3936 4.10004 21.9698 4.67355L22.4577 5.03421ZM21.9011 6.59414C21.9051 6.0775 22.1002 5.51798 22.4577 5.03421L21.9698 4.67355C21.5458 5.24723 21.2995 5.92905 21.2943 6.5894L21.9011 6.59414ZM22.4677 7.86044C22.1167 7.60082 21.8971 7.14791 21.9011 6.59397L21.2943 6.58957C21.2891 7.30455 21.5752 7.95506 22.1069 8.3483L22.4677 7.86044ZM23.2941 8.1182C22.9795 8.1182 22.6952 8.02923 22.4681 7.86071L22.1065 8.34802C22.4495 8.60248 22.864 8.725 23.2941 8.725V8.1182ZM23.8455 8.03142C23.6595 8.09079 23.4745 8.1182 23.2941 8.1182V8.725C23.5366 8.725 23.7838 8.68805 24.03 8.60949L23.8455 8.03142ZM25.1695 7.0413C24.8118 7.52523 24.3383 7.87386 23.8453 8.03146L24.0301 8.60945C24.6589 8.40843 25.2336 7.97548 25.6574 7.40197L25.1695 7.0413ZM25.7261 5.48138C25.7221 5.99802 25.527 6.55754 25.1695 7.0413L25.6574 7.40197C26.0814 6.82829 26.3277 6.14646 26.3329 5.48612L25.7261 5.48138ZM25.1595 4.21508C25.5105 4.47469 25.7301 4.9276 25.7261 5.48155L26.3329 5.48595C26.3381 4.77097 26.052 4.12046 25.5203 3.72722L25.1595 4.21508ZM23.7468 7.73222C24.192 7.59479 24.6156 7.26904 24.9185 6.85315L24.428 6.4959C24.1885 6.82481 23.8673 7.05997 23.5678 7.15241L23.7468 7.73222ZM22.6497 7.60831C23.0565 7.90842 23.5458 7.79597 23.749 7.73153L23.5656 7.15311C23.3918 7.2082 23.164 7.23368 23.0099 7.12001L22.6497 7.60831ZM22.2093 6.58931C22.2042 6.80847 22.2431 7.30835 22.6497 7.60831L23.0099 7.12001C22.8556 7.00619 22.8118 6.77965 22.8159 6.60342L22.2093 6.58931ZM22.7066 5.21896C22.3976 5.63096 22.2146 6.12897 22.2092 6.59279L22.816 6.59993C22.8197 6.28217 22.9494 5.90664 23.192 5.58303L22.7066 5.21896ZM23.8758 4.34329C23.4306 4.48073 23.007 4.80648 22.7041 5.22237L23.1946 5.57962C23.4341 5.2507 23.7553 5.01555 24.0548 4.9231L23.8758 4.34329ZM24.3377 4.27003C24.1487 4.27003 23.9834 4.311 23.8781 4.34259L24.0525 4.9238C24.1311 4.90023 24.2324 4.87683 24.3377 4.87683V4.27003ZM24.9736 4.4677C24.7631 4.31148 24.5317 4.27003 24.3377 4.27003V4.87683C24.4471 4.87683 24.5375 4.89974 24.612 4.95501L24.9736 4.4677ZM25.4133 5.48621C25.4184 5.26705 25.3795 4.76717 24.9729 4.46721L24.6127 4.95551C24.767 5.06933 24.8108 5.29587 24.8067 5.4721L25.4133 5.48621ZM24.916 6.85656C25.225 6.44456 25.408 5.94655 25.4134 5.48272L24.8066 5.47558C24.8029 5.79335 24.6733 6.16888 24.4306 6.49249L24.916 6.85656ZM23.8496 25.6545C23.5174 26.2304 23.5177 26.9413 23.8076 27.5936L24.3621 27.3472C24.1371 26.8409 24.1558 26.338 24.3753 25.9577L23.8496 25.6545ZM27.4875 25.107C26.1576 24.3344 24.5282 24.4809 23.8498 25.6542L24.3751 25.9579C24.8185 25.1911 26.0117 24.9514 27.1827 25.6317L27.4875 25.107ZM28.8255 28.5322C29.4986 27.3638 28.8122 25.8744 27.4872 25.1068L27.183 25.6318C28.3498 26.3078 28.7391 27.4666 28.2997 28.2292L28.8255 28.5322ZM26.88 29.5577C27.6848 29.5577 28.4281 29.2165 28.825 28.5331L28.3002 28.2284C28.035 28.6851 27.5188 28.9509 26.88 28.9509V29.5577ZM25.1919 29.0797C25.7407 29.399 26.3308 29.5577 26.88 29.5577V28.9509C26.4454 28.9509 25.9598 28.8244 25.4971 28.5552L25.1919 29.0797ZM23.8076 27.5936C24.0758 28.1972 24.5697 28.7213 25.1931 29.0804L25.496 28.5546C24.97 28.2516 24.572 27.8195 24.3621 27.3472L23.8076 27.5936ZM25.1707 26.4173C25.2509 26.2781 25.4557 26.16 25.795 26.16V25.5532C25.3437 25.5532 24.8773 25.7111 24.6449 26.1144L25.1707 26.4173ZM25.1997 26.9722C25.1277 26.8069 25.0778 26.5805 25.1715 26.4159L24.6441 26.1157C24.3976 26.5488 24.5592 27.0213 24.6434 27.2146L25.1997 26.9722ZM25.9508 27.7545C25.5973 27.5513 25.3291 27.2606 25.1984 26.9692L24.6448 27.2176C24.8358 27.6434 25.2021 28.024 25.6485 28.2806L25.9508 27.7545ZM27.5 27.7645C27.4253 27.8938 27.2458 28.005 26.9461 28.0208C26.653 28.0364 26.2928 27.9539 25.9525 27.7554L25.6468 28.2796C26.0788 28.5316 26.5554 28.6492 26.9782 28.6268C27.3946 28.6047 27.8104 28.4401 28.0254 28.0682L27.5 27.7645ZM26.7191 26.4274C27.0597 26.6241 27.3112 26.8954 27.4446 27.1574C27.5809 27.4253 27.5744 27.6358 27.5 27.7645L28.0254 28.0682C28.2406 27.6958 28.1743 27.2534 27.9854 26.8822C27.7935 26.5052 27.4542 26.1512 27.0225 25.9019L26.7191 26.4274ZM25.795 26.16C26.0776 26.16 26.4068 26.2449 26.7177 26.4266L27.0239 25.9027C26.6269 25.6707 26.1929 25.5532 25.795 25.5532V26.16ZM27.6698 13.7222C28.23 13.4905 28.8128 13.4364 29.3174 13.5575L29.459 12.9675C28.8142 12.8127 28.1006 12.8874 27.4379 13.1614L27.6698 13.7222ZM26.3929 14.7667C26.6581 14.3286 27.1093 13.954 27.6698 13.7222L27.4379 13.1614C26.7756 13.4353 26.2153 13.8883 25.8738 14.4524L26.3929 14.7667ZM26.2251 16.1486C26.0568 15.7424 26.103 15.2418 26.3923 14.7676L25.8743 14.4516C25.5017 15.0624 25.4099 15.7664 25.6645 16.3809L26.2251 16.1486ZM27.3163 17.0041C26.7792 16.8758 26.3936 16.5552 26.2251 16.1486L25.6645 16.3809C25.919 16.9949 26.4804 17.4283 27.1754 17.5943L27.3163 17.0041ZM27.8619 17.0647C27.6723 17.0647 27.4886 17.0441 27.3146 17.0037L27.1771 17.5947C27.3985 17.6462 27.6285 17.6715 27.8619 17.6715V17.0647ZM28.9641 16.8395C28.5997 16.9903 28.2207 17.0647 27.8619 17.0647V17.6715C28.303 17.6715 28.7607 17.5804 29.1962 17.4002L28.9641 16.8395ZM30.4136 14.4133C30.7509 15.2258 30.2134 16.3226 28.9641 16.8395L29.1962 17.4002C30.6134 16.8137 31.4918 15.4278 30.974 14.1806L30.4136 14.4133ZM29.3182 13.5577C29.8599 13.6861 30.2452 14.0068 30.4135 14.4131L30.9741 14.1808C30.7195 13.5664 30.1577 13.1331 29.4582 12.9673L29.3182 13.5577ZM27.3862 16.6976C27.8416 16.8073 28.3669 16.7439 28.8409 16.5502L28.6114 15.9885C28.2303 16.1442 27.8362 16.1818 27.5284 16.1077L27.3862 16.6976ZM26.5104 16.0268C26.704 16.494 27.1789 16.6482 27.3871 16.6978L27.5276 16.1075C27.3496 16.0651 27.1441 15.9711 27.071 15.7946L26.5104 16.0268ZM26.6572 14.9276C26.5418 15.1131 26.3171 15.5602 26.5104 16.0268L27.071 15.7946C26.9977 15.6176 27.0764 15.4026 27.1725 15.2479L26.6572 14.9276ZM27.7874 14.0073C27.3159 14.2021 26.8974 14.5344 26.656 14.9295L27.1737 15.2459C27.3369 14.979 27.6448 14.7228 28.0191 14.5682L27.7874 14.0073ZM28.7721 13.805C28.4454 13.805 28.1068 13.8734 27.7859 14.008L28.0206 14.5675C28.2698 14.463 28.5288 14.4118 28.7721 14.4118V13.805ZM29.2483 13.8607C29.0933 13.8206 28.9287 13.805 28.7721 13.805V14.4118C28.8914 14.4118 29.0027 14.4239 29.096 14.4481L29.2483 13.8607ZM30.119 14.5302C29.9255 14.0631 29.4505 13.9088 29.2424 13.8593L29.1018 14.4496C29.2798 14.492 29.4853 14.586 29.5584 14.7625L30.119 14.5302ZM28.8415 16.5499C29.304 16.3598 29.6878 16.0532 29.9275 15.7035C30.1637 15.3589 30.2854 14.9276 30.1186 14.5292L29.5589 14.7636C29.6173 14.903 29.5965 15.1132 29.427 15.3604C29.2609 15.6027 28.9758 15.8386 28.6108 15.9887L28.8415 16.5499ZM16.403 26.4069C15.7583 26.2522 15.0446 26.3268 14.382 26.6009L14.6139 27.1616C15.1741 26.9299 15.7568 26.8759 16.2614 26.997L16.403 26.4069ZM17.9139 27.6257C17.6597 27.0066 17.098 26.5729 16.4027 26.4068L16.2618 26.997C16.7985 27.1252 17.1839 27.4455 17.3526 27.8563L17.9139 27.6257ZM16.1356 30.8443C17.5528 30.2578 18.4313 28.8719 17.9135 27.6247L17.353 27.8573C17.6903 28.6698 17.1528 29.7666 15.9036 30.2836L16.1356 30.8443ZM14.7921 31.1202C15.2248 31.1202 15.6868 31.0288 16.135 30.8445L15.9042 30.2833C15.5249 30.4392 15.1411 30.5134 14.7921 30.5134V31.1202ZM12.6038 29.82C12.9575 30.6765 13.837 31.1202 14.7921 31.1202V30.5134C14.0095 30.5134 13.3995 30.1571 13.1647 29.5884L12.6038 29.82ZM12.8138 27.891C12.4411 28.5018 12.3494 29.2059 12.604 29.8203L13.1646 29.588C12.9962 29.1818 13.0424 28.6813 13.3318 28.2071L12.8138 27.891ZM14.382 26.6009C13.7193 26.8749 13.1601 27.3276 12.8143 27.8902L13.3312 28.2079C13.6015 27.7682 14.0536 27.3933 14.6139 27.1616L14.382 26.6009ZM15.5549 29.4282C15.1893 29.5785 14.821 29.6125 14.5321 29.5587C14.2372 29.5039 14.0728 29.3707 14.0143 29.2321L13.4553 29.4682C13.622 29.8629 14.0116 30.0791 14.4212 30.1553C14.8369 30.2326 15.3237 30.1793 15.7856 29.9894L15.5549 29.4282ZM16.5067 28.201C16.564 28.3408 16.5421 28.5518 16.3718 28.7996C16.2051 29.0421 15.9198 29.2781 15.5549 29.4282L15.7856 29.9894C16.2481 29.7992 16.6318 29.4927 16.8719 29.1433C17.1085 28.7991 17.2314 28.3688 17.0681 27.9707L16.5067 28.201ZM16.0505 27.889C16.2285 27.9314 16.4339 28.0255 16.5071 28.2019L17.0677 27.9697C16.8741 27.5025 16.3992 27.3483 16.191 27.2987L16.0505 27.889ZM15.7208 27.8513C15.84 27.8513 15.9513 27.8634 16.0446 27.8876L16.1969 27.3002C16.0419 27.26 15.8774 27.2445 15.7208 27.2445V27.8513ZM14.9693 28.007C15.2184 27.9025 15.4774 27.8513 15.7208 27.8513V27.2445C15.3941 27.2445 15.0555 27.3128 14.7346 27.4474L14.9693 28.007ZM14.1178 28.6854C14.2808 28.4187 14.5883 28.1627 14.9667 28.0081L14.7371 27.4463C14.2604 27.6411 13.8416 27.9736 13.6 28.369L14.1178 28.6854ZM14.0151 29.234C13.9417 29.057 14.0204 28.842 14.1166 28.6874L13.6012 28.367C13.4859 28.5526 13.2612 28.9996 13.4545 29.4663L14.0151 29.234Z" fill="#E0E0E0" mask="url(#path-1-outside-1_3762_62114)"/>
<path d="M17.2507 24.4495C16.2738 21.1722 16.2179 17.7958 16.2679 16.1082C20.6968 16.2442 23.6683 13.7094 25.0538 12.192C26.4402 13.7078 29.4114 16.231 33.8392 16.1065C33.8893 17.7934 33.8338 21.171 32.8566 24.4494C31.752 28.1549 29.52 31.5985 25.0535 32.4912C20.5872 31.5986 18.3552 28.1551 17.2507 24.4495Z" fill="white" stroke="#FF7035" stroke-width="1.21361"/>
<path d="M24.3712 26.3274L21.7188 23.6747L22.5815 22.8119L24.3712 24.6018L28.7442 20.2285L29.6069 21.0913L24.3712 26.3274Z" fill="#FF7035"/>
</svg>
