<svg width="219" height="47" viewBox="0 0 219 47" fill="none" xmlns="http://www.w3.org/2000/svg">
<rect width="219" height="47" fill="white"/>
<g clip-path="url(#clip0_1_2)">
<path d="M99.3472 11.1661C96.4907 11.1661 93.7344 12.3423 91.5858 14.4766L91.0674 14.9914V11.8096C91.0138 11.8096 90.9566 11.8096 90.903 11.8096C88.2288 11.8096 85.3509 13.3147 85.3509 16.6181V46.1121H91.0674V26.3707C91.0674 23.3606 91.7431 16.3642 97.9887 16.3642C102.883 16.3642 105.11 20.3468 105.11 24.0506C105.11 27.7543 102.665 31.8263 97.9887 31.8263C96.8697 31.8263 94.2528 31.6439 92.7763 30.0459C92.4152 31.1255 92.4617 32.7951 93.2732 34.2072C93.9775 35.437 95.5183 36.9278 98.836 37.053C98.9396 37.053 99.0433 37.0565 99.1506 37.0565C102.107 37.0565 105.057 35.7338 107.244 33.4279C109.554 30.9933 110.823 27.7078 110.823 24.1721C110.823 15.7314 104.914 11.1769 99.3508 11.1769L99.3472 11.1661ZM70.9793 11.1661C68.1228 11.1661 65.3665 12.3423 63.2143 14.4766L62.6959 14.9914V11.8096C62.6423 11.8096 62.5851 11.8096 62.5315 11.8096C59.8574 11.8096 56.9794 13.3147 56.9794 16.6181V46.1121H62.6959V26.3707C62.6959 23.3606 63.3716 16.3642 69.6172 16.3642C74.5114 16.3642 76.7422 20.3468 76.7422 24.0506C76.7422 27.7543 74.2933 31.8263 69.6172 31.8263C68.4982 31.8263 65.8777 31.6439 64.4048 30.0459C64.0437 31.1255 64.0902 32.7915 64.8982 34.2037C65.6024 35.4335 67.1433 36.9243 70.4609 37.0494C70.5646 37.0494 70.6683 37.053 70.7719 37.053C73.7285 37.053 76.6779 35.7302 78.8658 33.4243C81.1753 30.9897 82.448 27.7042 82.448 24.1685C82.448 15.7279 76.5385 11.1733 70.9757 11.1733L70.9793 11.1661ZM45.307 22.5526C44.5741 22.6241 43.6982 22.7028 42.8116 22.7028C40.7774 22.7028 39.2044 22.2845 38.021 21.4265C37.5706 22.7778 37.6814 24.0077 38.3499 24.9944C39.3224 26.4351 41.3887 27.2609 44.02 27.2609C45.2104 27.2609 46.4831 27.0929 47.8059 26.764C52.8932 25.5092 54.2874 21.7161 53.9407 18.8489C53.4866 15.1094 50.0153 11.0875 43.4658 11.0875C39.4582 11.0875 36.0047 12.4281 33.7381 14.8627C30.1488 18.6236 29.1407 24.7334 31.2749 29.7277C33.2805 34.411 37.5241 37.0959 42.926 37.0959C47.6736 37.0959 51.0413 35.4549 53.5045 31.9335L48.8713 29.6812C47.2625 31.2435 45.0889 32.1373 42.8724 32.1373C42.3933 32.1373 41.9178 32.0944 41.4531 32.0122C38.0461 31.4366 35.5543 27.8901 35.6651 23.7645C35.7616 19.3994 38.9613 15.9424 43.1083 15.7279C43.2406 15.7207 43.3693 15.7171 43.498 15.7171C46.6512 15.7171 48.9428 17.8228 49.0214 19.714C49.0893 21.2871 47.6987 22.3488 45.3034 22.5562L45.307 22.5526ZM15.7378 11.1661C12.8814 11.1661 10.125 12.3423 7.97287 14.4766L7.45449 14.9914V11.8096C7.40086 11.8096 7.34366 11.8096 7.29004 11.8096C4.61591 11.8096 1.73801 13.3147 1.73801 16.6181V46.1121H7.45449V26.3707C7.45449 23.3606 8.13017 16.3642 14.3758 16.3642C19.27 16.3642 21.4972 20.3468 21.4972 24.0506C21.4972 27.7543 19.0519 31.8263 14.3758 31.8263C13.2568 31.8263 10.6363 31.6439 9.16336 30.0459C8.80228 31.1255 8.84875 32.7951 9.65671 34.2072C10.3646 35.437 11.9018 36.9278 15.2195 37.053C15.3231 37.053 15.4268 37.0565 15.5341 37.0565C18.4906 37.0565 21.44 35.7338 23.6279 33.4279C25.9374 30.9933 27.2101 27.7078 27.2101 24.1721C27.2101 15.7314 21.3006 11.1769 15.7378 11.1769V11.1661ZM151.164 11.0696C151.024 11.0696 150.885 11.0732 150.742 11.0839C148.79 11.1769 147.063 12.5068 145.998 14.7376L145.419 15.9459V11.6738H140.535V36.556H146.298V26.5674C146.298 25.2732 146.298 23.6644 146.398 22.0879C146.72 18.4377 149.512 16.4751 151.975 16.4751C153.305 16.4751 154.367 17.0506 154.9 18.0373C155.851 17.1186 156.165 15.5992 155.679 14.1227C155.05 12.2136 153.359 11.0732 151.16 11.0732L151.164 11.0696ZM128.863 22.5526C128.13 22.6241 127.254 22.7028 126.367 22.7028C124.333 22.7028 122.76 22.2845 121.577 21.4265C121.126 22.7778 121.237 24.0077 121.906 24.9944C122.878 26.4351 124.944 27.2609 127.576 27.2609C128.766 27.2609 130.039 27.0929 131.362 26.764C136.449 25.5092 137.847 21.7161 137.496 18.8489C137.042 15.1094 133.571 11.0875 127.022 11.0875C123.014 11.0875 119.56 12.4281 117.294 14.8627C113.705 18.6236 112.693 24.7334 114.831 29.7241C116.833 34.4074 121.08 37.0923 126.482 37.0923C131.226 37.0923 134.597 35.4513 137.06 31.9299L132.427 29.6777C130.818 31.2399 128.648 32.1337 126.428 32.1337C125.949 32.1337 125.474 32.0908 125.009 32.0086C121.602 31.433 119.11 27.8866 119.217 23.761C119.314 19.3959 122.513 15.9388 126.66 15.7243C126.793 15.7171 126.921 15.7136 127.05 15.7136C130.203 15.7136 132.491 17.8193 132.574 19.7105C132.642 21.2835 131.251 22.3453 128.856 22.5526H128.863ZM202.684 36.9135C202.88 36.9135 203.08 36.9064 203.277 36.8957C206.42 36.6919 208.271 35.7052 208.933 33.8747C209.716 31.5653 208.804 29.8207 208.025 29.1057C208.014 29.7027 207.828 30.2175 207.471 30.6393C206.849 31.3758 205.747 31.7655 204.292 31.7655C202.415 31.7655 201.014 30.5392 200.456 28.4049C199.924 26.428 199.995 18.5307 200.038 13.8081C200.045 12.9858 200.052 12.2708 200.052 11.7203H194.436V28.0296C194.436 30.8324 195.13 32.9131 196.556 34.386C198.165 36.0376 200.285 36.91 202.687 36.91L202.684 36.9135ZM210.706 11.7203C210.706 14.2228 210.731 31.3901 210.731 33.4243C210.731 38.129 208.186 40.6208 203.159 40.8353C203.052 40.8353 202.945 40.8389 202.841 40.8389C200.042 40.8389 196.42 39.6449 194.633 37.0387C194.1 39.3589 194.411 41.3144 195.566 42.8517C197.092 44.8894 200.106 46.0585 203.831 46.0585C211.832 46.0585 216.419 41.579 216.419 33.7675V11.7238H210.702L210.706 11.7203ZM186.7 11.066C186.56 11.066 186.421 11.0696 186.278 11.0803C184.329 11.1733 182.599 12.5032 181.534 14.734L180.955 15.9424V11.6702H176.071V36.5525H181.834V26.5638C181.834 25.2696 181.834 23.6609 181.934 22.0843C182.256 18.4342 185.048 16.4715 187.511 16.4715C188.841 16.4715 189.903 17.0471 190.436 18.0338C191.386 17.115 191.701 15.5956 191.215 14.1191C190.582 12.21 188.895 11.0696 186.696 11.0696L186.7 11.066ZM169.425 5.96087C170.648 5.96087 172.121 6.62941 172.811 7.90927C173.819 6.63656 174.083 5.37099 173.576 4.22341C172.793 2.46091 170.276 1.274 167.316 1.274C167.212 1.274 167.108 1.274 167.005 1.27758C164.788 1.36338 163.272 1.93896 162.379 3.02934C161.07 4.62739 161.092 7.32654 161.117 10.183C161.12 10.5905 161.124 11.0017 161.124 11.4128V11.7167H158.872V16.5501H161.124V36.5453H166.89V16.5501H168.664C171.18 16.5501 173.032 14.5338 173.157 11.7167H166.89V8.47412C166.89 6.94758 167.884 5.96087 169.425 5.96087Z" fill="url(#paint0_linear_1_2)"/>
</g>
<defs>
<linearGradient id="paint0_linear_1_2" x1="1.74158" y1="23.6966" x2="216.419" y2="23.6966" gradientUnits="userSpaceOnUse">
<stop stop-color="#BE1E2D"/>
<stop offset="1" stop-color="#F26522"/>
</linearGradient>
<clipPath id="clip0_1_2">
<rect width="214.677" height="44.8274" fill="white" transform="translate(1.74167 1.28131)"/>
</clipPath>
</defs>
</svg>
