<svg width="24" height="24" viewBox="0 0 24 24" fill="none" xmlns="http://www.w3.org/2000/svg">
    <path clip-rule="evenodd" d="M12 20.296a8.296 8.296 0 1 0 0-16.592 8.296 8.296 0 0 0 0 16.592z" stroke="#FF7035" stroke-width="1.5" stroke-linecap="round" stroke-linejoin="round"/>
    <path fill-rule="evenodd" clip-rule="evenodd" d="M13.334 1.333a1.333 1.333 0 1 0-2.667 0h2.667zM10.667 2.52v1.333h2.667V2.519h-2.667zm0 0h2.667V1.332h-2.667v1.185zM13.334 21.482v-1.334h-2.667v1.334h2.667zm-2.667 1.185a1.333 1.333 0 0 0 2.667 0h-2.667zm2.667-1.185v1.185h-2.667v-1.185h2.667zM21.482 10.666h-1.334v2.667h1.334v-2.667zm0 0v2.667h1.184m0 0v-2.667h-1.184m1.185 2.667a1.333 1.333 0 0 0 0-2.667v2.667zM1.334 10.666a1.333 1.333 0 0 0 0 2.667v-2.667zm0 2.667H2.52v-2.667H1.334m0 0v2.667-2.667zm1.185 0v2.667h1.333v-2.667H2.52z" fill="#FF7035"/>
    <path d="M12 14.37a2.37 2.37 0 1 0 0-4.741 2.37 2.37 0 0 0 0 4.74z" fill="#FF7035"/>
</svg>
