<svg width="12" height="12" viewBox="0 0 12 12" fill="none" xmlns="http://www.w3.org/2000/svg">
<g clip-path="url(#clip0_5840_76089)">
<path d="M1.0891 4C1.09596 4.00014 1.10281 4.00014 1.10965 4H3.50007C3.77621 4 4.00007 3.77614 4.00007 3.5C4.00007 3.22386 3.77621 3 3.50007 3H1.99961C2.91225 1.78495 4.3648 1 6.00007 1C8.76149 1 11.0001 3.23858 11.0001 6C11.0001 8.76142 8.76149 11 6.00007 11C3.39214 11 1.25008 9.003 1.02047 6.45512C0.995691 6.1801 0.752645 5.97723 0.477617 6.00202C0.202589 6.0268 -0.000273673 6.26985 0.0245104 6.54488C0.300137 9.6035 2.86996 12 6.00007 12C9.31378 12 12.0001 9.31371 12.0001 6C12.0001 2.68629 9.31378 0 6.00007 0C4.20754 0 2.59913 0.786128 1.50007 2.03138V1C1.50007 0.723858 1.27621 0.5 1.00007 0.5C0.723929 0.5 0.500071 0.723858 0.500071 1V3.5C0.500071 3.77614 0.723929 4 1.00007 4H1.0891ZM5.50007 3C5.77621 3 6.00007 3.22386 6.00007 3.5V6H7.50007C7.77621 6 8.00007 6.22386 8.00007 6.5C8.00007 6.77614 7.77621 7 7.50007 7H5.50007C5.22393 7 5.00007 6.77614 5.00007 6.5V3.5C5.00007 3.22386 5.22393 3 5.50007 3Z" fill="#848484"/>
</g>
<defs>
<clipPath id="clip0_5840_76089">
<rect width="12" height="12" fill="white"/>
</clipPath>
</defs>
</svg>
