<svg width="11" height="6" viewBox="0 0 11 6" fill="none" xmlns="http://www.w3.org/2000/svg">
<path d="M0.974326 3.65857C0.886827 3.92025 0.603843 4.06162 0.342022 3.97435C0.0800503 3.88702 -0.0615298 3.60386 0.0257939 3.34189C0.016689 3.37235 0.0261661 3.34078 0.0261661 3.34078C0.0316892 3.32438 0.0375936 3.30811 0.0436294 3.29189C0.0539221 3.26424 0.0687157 3.22604 0.0884017 3.17879C0.127738 3.08438 0.186829 2.95334 0.268881 2.79787C0.432539 2.48778 0.690254 2.07538 1.06906 1.66214C1.83437 0.827258 3.08679 0 5.00014 0C6.91348 0 8.16591 0.827258 8.93121 1.66214C9.31002 2.07538 9.56773 2.48778 9.73139 2.79787C9.81344 2.95334 9.87253 3.08438 9.91187 3.17879C9.93156 3.22604 9.94635 3.26424 9.95664 3.29189C9.95971 3.30015 9.97004 3.35247 9.97996 3.40273C9.98898 3.44843 9.99766 3.49242 10.0002 3.5C10.0002 3.5 10.0837 3.83252 9.65825 3.97435C9.39683 4.06149 9.1143 3.92068 9.02635 3.65976L9.02594 3.65857L9.02555 3.65748L9.01946 3.64073C9.01339 3.62444 9.00329 3.59819 8.98879 3.56341C8.95977 3.49375 8.91339 3.39042 8.84701 3.26463C8.71379 3.01222 8.50275 2.67462 8.19406 2.33786C7.58437 1.67274 6.58679 1 5.00014 1C3.41348 1 2.41591 1.67274 1.80621 2.33786C1.49752 2.67462 1.28648 3.01222 1.15327 3.26463C1.08688 3.39042 1.0405 3.49375 1.01148 3.56341C0.996985 3.59819 0.986877 3.62444 0.980812 3.64073L0.974326 3.65857ZM5.00024 2C3.89567 2 3.00024 2.89543 3.00024 4C3.00024 5.10457 3.89567 6 5.00024 6C6.10481 6 7.00024 5.10457 7.00024 4C7.00024 2.89543 6.10481 2 5.00024 2ZM4.00024 4C4.00024 3.44772 4.44796 3 5.00024 3C5.55253 3 6.00024 3.44772 6.00024 4C6.00024 4.55228 5.55253 5 5.00024 5C4.44796 5 4.00024 4.55228 4.00024 4Z" fill="#848484"/>
</svg>
