<svg width="25" height="24" viewBox="0 0 25 24" fill="none" xmlns="http://www.w3.org/2000/svg">
<path opacity="0.01" fill-rule="evenodd" clip-rule="evenodd" d="M24.5 0H0.5V24H24.5V0ZM22.5 2.00098H2.5V22.001H22.5V2.00098Z" fill="#FF7035"/>
<g clip-path="url(#clip0_1944_279315)">
<path d="M14.1042 5H5.89579C5.12558 5 4.5 5.64408 4.5 6.43708V18.5629C4.5 19.3559 5.12558 20 5.89579 20H14.1042C14.8744 20 15.5 19.3559 15.5 18.5629V6.43708C15.4964 5.64408 14.8708 5 14.1042 5ZM14.5201 18.5592C14.5201 18.7975 14.332 18.9911 14.1006 18.9911H5.89218C5.66075 18.9911 5.47272 18.7975 5.47272 18.5592V6.43708C5.47272 6.19881 5.66075 6.00521 5.89218 6.00521H14.1006C14.332 6.00521 14.5201 6.19881 14.5201 6.43708V18.5592Z" fill="#121212"/>
<path d="M17.3602 3.3711L9.46174 2.68095C8.72061 2.6162 8.06726 3.15176 8.00399 3.87592C7.98171 4.13091 8.17265 4.35314 8.43362 4.37594C8.69458 4.39874 8.92117 4.213 8.94345 3.95801C8.96247 3.74042 9.15885 3.57944 9.38154 3.5989L17.28 4.28904C17.5027 4.3085 17.6682 4.5011 17.6492 4.71869L16.6817 15.7918C16.6626 16.0094 16.4663 16.1704 16.2436 16.151C15.9826 16.1282 15.756 16.3139 15.7337 16.5689C15.7115 16.8239 15.9024 17.0461 16.1634 17.0689C16.9045 17.1337 17.5578 16.5981 17.6211 15.8739L18.5887 4.80078C18.6519 4.07662 18.1014 3.43585 17.3602 3.3711Z" fill="#121212"/>
</g>
<defs>
<clipPath id="clip0_1944_279315">
<rect width="20" height="20" fill="white" transform="translate(2.5)"/>
</clipPath>
</defs>
</svg>
