<svg width="33" height="34" viewBox="0 0 33 34" fill="none" xmlns="http://www.w3.org/2000/svg">
<path d="M16.2564 33.1089C15.4664 33.1089 14.9069 32.3862 14.3802 31.762C14.0839 31.4007 13.7219 30.908 13.4914 30.8751C13.261 30.8094 12.7014 31.1379 12.2735 31.3678C11.5493 31.762 10.7923 32.1891 10.0681 31.8934C9.34393 31.5978 9.11351 30.7437 8.88309 29.9553C8.75143 29.5283 8.58684 28.9041 8.38934 28.7727C8.19184 28.6413 7.56642 28.707 7.10559 28.7727C6.28267 28.8713 5.39392 28.9698 4.86725 28.4114C4.30767 27.853 4.40642 26.9989 4.50517 26.1776C4.571 25.7177 4.63683 25.0936 4.50517 24.8965C4.3735 24.6994 3.781 24.5352 3.32016 24.4038C2.49724 24.1738 1.67433 23.9439 1.37808 23.2212C1.08182 22.4985 1.50974 21.7429 1.90474 21.0203C2.13516 20.6261 2.43141 20.0676 2.39849 19.8048C2.36558 19.5749 1.87183 19.1807 1.50974 18.9179C0.884324 18.4251 0.160156 17.8339 0.160156 17.0455C0.160156 16.2571 0.884324 15.6986 1.50974 15.173C1.87183 14.8774 2.36558 14.5161 2.39849 14.2861C2.43141 14.0562 2.13516 13.4977 1.90474 13.0707C1.47683 12.3151 1.04891 11.5596 1.34516 10.8369C1.64141 10.1142 2.49724 9.88428 3.28725 9.65433C3.71516 9.52294 4.34058 9.35869 4.47225 9.16159C4.60392 8.96449 4.53808 8.34035 4.47225 7.88046C4.3735 7.05922 4.27475 6.17229 4.83433 5.6467C5.39392 5.08825 6.24975 5.1868 7.07267 5.28535C7.53351 5.35105 8.15892 5.41675 8.35642 5.28535C8.55392 5.15395 8.71851 4.56266 8.85017 4.10277C9.08059 3.28153 9.31101 2.4603 10.0352 2.16465C10.7593 1.869 11.5164 2.29605 12.2406 2.69024C12.6356 2.92019 13.1952 3.21583 13.4585 3.18298C13.6889 3.15013 14.0839 2.65739 14.3473 2.29605C14.841 1.67191 15.4335 0.949219 16.2235 0.949219C17.0135 0.949219 17.5731 1.67191 18.0998 2.29605C18.396 2.65739 18.7581 3.15013 18.9885 3.18298C19.2519 3.24868 19.7785 2.92019 20.2064 2.69024C20.9306 2.29605 21.6877 1.869 22.4119 2.16465C23.136 2.4603 23.3665 3.31438 23.5969 4.10277C23.7285 4.52981 23.8931 5.15395 24.0906 5.28535C24.2881 5.41675 24.9135 5.35105 25.3744 5.28535C26.1973 5.1868 27.0861 5.08825 27.6127 5.6467C28.1723 6.20514 28.0736 7.05922 27.9748 7.88046C27.909 8.34035 27.8431 8.96449 27.9748 9.16159C28.1065 9.35869 28.699 9.52294 29.1598 9.65433C29.9827 9.88428 30.8056 10.1142 31.1019 10.8369C31.3981 11.5596 30.9702 12.3151 30.5752 13.0378C30.3448 13.432 30.0486 13.9905 30.0815 14.2533C30.1144 14.4832 30.6081 14.8774 30.9702 15.1402C31.5956 15.6329 32.3198 16.2242 32.3198 17.0126C32.3198 17.801 31.5956 18.3594 30.9702 18.885C30.6081 19.1807 30.1144 19.542 30.0815 19.772C30.0486 20.0019 30.3448 20.5604 30.5752 20.9874C30.9702 21.7101 31.3981 22.4656 31.1019 23.1883C30.8056 23.911 29.9498 24.141 29.1598 24.3709C28.7319 24.5023 28.1065 24.6665 27.9748 24.8636C27.8431 25.0607 27.909 25.6849 27.9748 26.1448C28.0736 26.966 28.1723 27.853 27.6127 28.3785C27.0531 28.937 26.1973 28.8384 25.3744 28.7399C24.9135 28.6742 24.2881 28.6085 24.0906 28.7399C23.8931 28.8713 23.7285 29.4626 23.5969 29.9225C23.3665 30.7437 23.136 31.5649 22.4119 31.8606C21.6877 32.1562 20.9306 31.7292 20.2064 31.335C19.8114 31.1051 19.2519 30.8094 18.9885 30.8423C18.7581 30.8751 18.3631 31.3678 18.0998 31.7292C17.606 32.3862 17.0464 33.1089 16.2564 33.1089ZM13.4256 29.6925C13.5244 29.6925 13.6231 29.6925 13.6889 29.7254C14.3144 29.8568 14.8081 30.4481 15.2689 31.0394C15.5652 31.4007 15.9931 31.9591 16.2235 31.9591C16.4539 31.9591 16.9148 31.4007 17.1781 31.0394C17.6389 30.4481 18.0998 29.8568 18.7581 29.7254C19.4164 29.594 20.1077 29.9553 20.766 30.3495C21.1281 30.5466 21.7535 30.908 21.951 30.8094C22.1485 30.7109 22.346 30.0539 22.4777 29.594C22.6752 28.8713 22.9056 28.1486 23.4323 27.7873C23.9919 27.4259 24.749 27.4916 25.506 27.5902C25.934 27.623 26.6581 27.7216 26.8227 27.5573C26.9873 27.3931 26.8885 26.6704 26.8556 26.2433C26.7569 25.4878 26.691 24.7322 27.0531 24.1738C27.4152 23.6154 28.1723 23.4183 28.8636 23.2212C29.3244 23.0898 29.9827 22.8927 30.0815 22.6956C30.1473 22.4985 29.8181 21.8743 29.6206 21.513C29.2586 20.856 28.8636 20.1662 28.9952 19.5092C29.1269 18.885 29.7194 18.3923 30.3119 17.9324C30.674 17.6368 31.2336 17.2097 31.2336 16.9798C31.2336 16.7498 30.674 16.2899 30.3119 16.0271C29.7194 15.5672 29.1269 15.1073 28.9952 14.4504C28.8636 13.7934 29.2256 13.1035 29.6206 12.4465C29.8181 12.0852 30.1802 11.4611 30.0815 11.264C29.9827 11.0669 29.3244 10.8698 28.8636 10.7384C28.1394 10.5413 27.4152 10.3113 27.0531 9.78573C26.691 9.22729 26.7569 8.47175 26.8556 7.71621C26.8885 7.28917 26.9873 6.56648 26.8227 6.40223C26.6581 6.23799 25.934 6.33653 25.506 6.36938C24.749 6.46793 23.9919 6.53363 23.4323 6.17229C22.8727 5.81094 22.6752 5.05541 22.4777 4.36557C22.346 3.90567 22.1485 3.24868 21.951 3.15013C21.7535 3.08444 21.1281 3.41293 20.766 3.61003C20.1077 3.97137 19.4164 4.36557 18.7581 4.23417C18.1327 4.10277 17.6389 3.51148 17.1781 2.92019C16.8819 2.55884 16.4539 2.0004 16.2235 2.0004C15.9931 2.0004 15.5323 2.55884 15.2689 2.92019C14.8081 3.51148 14.3473 4.10277 13.6889 4.23417C13.0306 4.36557 12.3393 4.00422 11.681 3.61003C11.3189 3.41293 10.6935 3.05159 10.496 3.15013C10.2985 3.24868 10.101 3.90567 9.96935 4.36557C9.77184 5.08825 9.54143 5.81094 9.01476 6.17229C8.45517 6.53363 7.69809 6.46793 6.941 6.36938C6.51309 6.33653 5.78892 6.23799 5.62434 6.40223C5.45975 6.56648 5.5585 7.28917 5.59142 7.71621C5.69017 8.47175 5.756 9.22729 5.39392 9.78573C5.03183 10.3442 4.27475 10.5413 3.5835 10.7384C3.12266 10.8698 2.46433 11.0669 2.36558 11.264C2.33266 11.4611 2.66183 12.0852 2.89225 12.4794C3.25433 13.1364 3.64933 13.8262 3.51766 14.4832C3.386 15.1073 2.7935 15.6001 2.20099 16.06C1.83891 16.3556 1.27933 16.7827 1.27933 17.0126C1.27933 17.2426 1.83891 17.7025 2.20099 17.9653C2.7935 18.4251 3.386 18.885 3.51766 19.542C3.64933 20.199 3.28725 20.8889 2.89225 21.5458C2.69475 21.9072 2.33266 22.5313 2.43141 22.7284C2.53016 22.9255 3.1885 23.1226 3.64933 23.254C4.3735 23.4511 5.09767 23.6811 5.45975 24.2067C5.82184 24.7651 5.756 25.5206 5.65725 26.2762C5.62434 26.7032 5.52559 27.4259 5.69017 27.5902C5.85475 27.7544 6.57892 27.6559 7.00684 27.623C7.76392 27.5245 8.52101 27.4588 9.08059 27.8201C9.64018 28.1814 9.83768 28.937 10.0352 29.6268C10.1668 30.0867 10.3643 30.7437 10.5618 30.8423C10.7593 30.9408 11.3848 30.5795 11.7468 30.3824C12.2735 30.021 12.866 29.6925 13.4256 29.6925Z" fill="#E0E0E0"/>
<path d="M9.08276 19.0176C8.234 16.1704 8.1714 13.2365 8.21138 11.7182C12.0702 11.806 14.6799 9.63013 15.9334 8.27779C17.1877 9.62859 19.7972 11.7945 23.6548 11.7164C23.6949 13.2341 23.6326 16.1692 22.7835 19.0175C21.8083 22.2888 19.8462 25.3083 15.9331 26.0974C12.02 25.3084 10.0579 22.289 9.08276 19.0176Z" fill="white" stroke="#FF7035" stroke-width="1.23691"/>
<path d="M15.3234 20.7028L12.9688 18.3481L13.7346 17.5823L15.3234 19.1711L19.2054 15.2891L19.9713 16.0549L15.3234 20.7028Z" fill="#FF7035"/>
</svg>
