<svg width="25" height="34" viewBox="0 0 25 34" fill="none" xmlns="http://www.w3.org/2000/svg">
<path d="M2.15972 3.08359V3.08359C2.15972 2.5457 2.59703 2.10757 3.13447 2.10757H15.2655C15.3075 2.10757 15.3486 2.10944 15.3888 2.11303V9.59305C15.3888 9.95634 15.6826 10.2502 16.0459 10.2502H23.5259C23.5295 10.2909 23.5314 10.3325 23.5314 10.3747L23.5289 30.9758C23.5289 31.5123 23.0917 31.9506 22.5541 31.9506H3.1332C2.59669 31.9506 2.15845 31.5134 2.15845 30.9758L2.15972 3.08359ZM24.0986 8.57782L17.06 1.53921L17.0598 1.53906C16.5676 1.04555 15.961 0.794605 15.2641 0.794605H3.13307C1.87126 0.794605 0.845386 1.82198 0.845386 3.08355V30.9758C0.845386 32.2375 1.87138 33.2635 3.13307 33.2635H22.5553C23.817 33.2635 24.843 32.2375 24.843 30.9758V10.3747C24.843 9.67764 24.5907 9.06995 24.0986 8.57782ZM16.7004 3.03683L22.6009 8.93732H16.7004V3.03683ZM5.7461 4.83228C5.3828 4.83228 5.08898 5.12611 5.08898 5.4894C5.08898 5.85269 5.38281 6.14651 5.7461 6.14651H11.8016C12.1648 6.14651 12.4587 5.85268 12.4587 5.4894C12.4587 5.1261 12.1648 4.83228 11.8016 4.83228H5.7461ZM5.08898 9.59321C5.08898 9.9565 5.38281 10.2503 5.7461 10.2503H11.8016C12.1648 10.2503 12.4587 9.9565 12.4587 9.59321C12.4587 9.22991 12.1648 8.93609 11.8016 8.93609H5.7461C5.3828 8.93609 5.08898 9.22991 5.08898 9.59321Z" fill="#E0E0E0" stroke="#E0E0E0" stroke-width="0.309227"/>
<path d="M11.8214 23.6832L9.4668 21.3286L10.2327 20.5627L11.8214 22.1515L15.7034 18.2695L16.4693 19.0354L11.8214 23.6832Z" fill="#FF7035"/>
<path d="M12.8695 14.5593C9.2885 14.5593 6.37569 17.4722 6.37569 21.0531C6.37569 24.6339 9.28859 27.5468 12.8695 27.5468C16.4503 27.5468 19.3632 24.6339 19.3632 21.0531C19.3632 17.4722 16.4503 14.5593 12.8695 14.5593Z" stroke="#FF7035" stroke-width="1.23691"/>
</svg>
