<svg xmlns="http://www.w3.org/2000/svg" width="32" height="32" fill="none" stroke="#5b5b5b" xmlns:v="https://vecta.io/nano"><g stroke-linecap="round" stroke-linejoin="round"><path d="M4 4l2.773.479L8.057 19.74c.103 1.246 1.147 2.203 2.4 2.199H25a2.4 2.4 0 0 0 2.38-2.056l1.265-8.723c.141-.975-.537-1.88-1.513-2.021-.085-.012-19.913-.019-19.913-.019" stroke-width="1.5"/><path d="M19.164 14.034h3.697" stroke-width="1.6"/></g><path d="M10.599 27.275c0 .4-.324.725-.725.725s-.725-.325-.725-.725.324-.724.725-.724.725.325.725.724zm15.036 0c0 .4-.325.725-.727.725s-.725-.325-.725-.725.324-.724.725-.724.727.325.727.724z" stroke-linejoin="round" stroke-width="1.5"/></svg>