<svg xmlns="http://www.w3.org/2000/svg" width="32" height="32" fill="#5b5b5b" xmlns:v="https://vecta.io/nano"><path d="M12.57 20.597h6.69v8.56h-6.69v-8.559z"/><path d="M29.839 10.148l-1.663-6.56A2.11 2.11 0 0 0 26.126 2H5.602c-.972 0-1.817.653-2.055 1.589L1.899 10.11c-.464 1.822.09 3.793 1.478 5.092V28.07c0 1.065.833 1.93 1.9 1.93h21.211c1.067 0 1.933-.865 1.933-1.93V15.193c1.328-1.566 1.824-3.176 1.419-5.045zm-3.298-6.144l1.669 6.56c.572 2.247-1.223 4.449-3.521 4.449-1.997 0-3.63-1.605-3.63-3.578V3.69h5.068c.197 0 .367.129.415.315zm-7.172 7.674c0 1.871-1.575 3.509-3.467 3.476-1.919 0-3.473-1.56-3.473-3.476V3.69h6.94v7.989zm-15.84-1.153l1.659-6.521c.047-.186.218-.315.415-.315h5.137v7.715c0 1.99-1.646 3.609-3.66 3.609-2.318-.005-4.128-2.216-3.55-4.488zM26.731 28.07c0 .133-.109.241-.243.241H5.277c-.133 0-.21-.107-.21-.241V16.307c2.293.979 5.046.1 6.439-1.926.912 1.476 2.533 2.463 4.394 2.463h.001a5.2 5.2 0 0 0 4.393-2.45c1.424 2.071 4.145 2.817 6.438 1.911V28.07h0z"/></svg>